<mxfile host="app.diagrams.net" modified="2021-04-04T13:35:18.930Z" agent="5.0 (Windows NT 10.0; Win64; x64) AppleWebKit/537.36 (KHTML, like Gecko) Chrome/89.0.4389.114 Safari/537.36" etag="_pIswbzqrianK7_rBI-y" version="14.5.7" type="github">
  <diagram id="R2lEEEUBdFMjLlhIrx00" name="Page-1">
    <mxGraphModel dx="4261" dy="2558" grid="0" gridSize="10" guides="1" tooltips="1" connect="1" arrows="1" fold="1" page="0" pageScale="1" pageWidth="850" pageHeight="1100" background="none" math="0" shadow="0" extFonts="Permanent Marker^https://fonts.googleapis.com/css?family=Permanent+Marker">
      <root>
        <mxCell id="0" />
        <mxCell id="1" parent="0" />
        <mxCell id="C-vyLk0tnHw3VtMMgP7b-1" value="" style="edgeStyle=entityRelationEdgeStyle;endArrow=ERone;startArrow=ERmany;endFill=0;startFill=0;" parent="1" source="C-vyLk0tnHw3VtMMgP7b-23" target="C-vyLk0tnHw3VtMMgP7b-2" edge="1">
          <mxGeometry width="100" height="100" relative="1" as="geometry">
            <mxPoint x="-550" y="-995" as="sourcePoint" />
            <mxPoint x="-120" y="-260" as="targetPoint" />
          </mxGeometry>
        </mxCell>
        <mxCell id="Mv3i5eQ_VLfhkcZu6XRU-98" value="" style="edgeStyle=orthogonalEdgeStyle;rounded=0;orthogonalLoop=1;jettySize=auto;html=1;startArrow=ERone;startFill=0;endArrow=ERmany;endFill=0;" edge="1" parent="1" source="C-vyLk0tnHw3VtMMgP7b-2" target="Mv3i5eQ_VLfhkcZu6XRU-85">
          <mxGeometry relative="1" as="geometry">
            <Array as="points">
              <mxPoint x="-350" y="-550" />
              <mxPoint x="-480" y="-550" />
              <mxPoint x="-480" y="-480" />
            </Array>
          </mxGeometry>
        </mxCell>
        <mxCell id="Mv3i5eQ_VLfhkcZu6XRU-160" value="" style="edgeStyle=orthogonalEdgeStyle;rounded=0;orthogonalLoop=1;jettySize=auto;html=1;startArrow=ERone;startFill=0;endArrow=ERmany;endFill=0;" edge="1" parent="1" source="C-vyLk0tnHw3VtMMgP7b-2" target="Mv3i5eQ_VLfhkcZu6XRU-147">
          <mxGeometry relative="1" as="geometry" />
        </mxCell>
        <mxCell id="Mv3i5eQ_VLfhkcZu6XRU-201" value="" style="edgeStyle=orthogonalEdgeStyle;rounded=0;orthogonalLoop=1;jettySize=auto;html=1;startArrow=ERone;startFill=0;endArrow=ERmany;endFill=0;exitX=0.5;exitY=1;exitDx=0;exitDy=0;entryX=0;entryY=0.5;entryDx=0;entryDy=0;" edge="1" parent="1" source="C-vyLk0tnHw3VtMMgP7b-2" target="Mv3i5eQ_VLfhkcZu6XRU-195">
          <mxGeometry relative="1" as="geometry">
            <mxPoint x="-280" y="-560" as="sourcePoint" />
          </mxGeometry>
        </mxCell>
        <mxCell id="Mv3i5eQ_VLfhkcZu6XRU-316" value="" style="edgeStyle=orthogonalEdgeStyle;rounded=0;orthogonalLoop=1;jettySize=auto;html=1;startArrow=ERone;startFill=0;endArrow=ERmany;endFill=0;exitX=0.75;exitY=1;exitDx=0;exitDy=0;" edge="1" parent="1" source="C-vyLk0tnHw3VtMMgP7b-2" target="Mv3i5eQ_VLfhkcZu6XRU-303">
          <mxGeometry relative="1" as="geometry" />
        </mxCell>
        <mxCell id="C-vyLk0tnHw3VtMMgP7b-2" value="User" style="shape=table;startSize=30;container=1;collapsible=1;childLayout=tableLayout;fixedRows=1;rowLines=0;fontStyle=1;align=center;resizeLast=1;" parent="1" vertex="1">
          <mxGeometry x="-440" y="-920" width="280" height="360" as="geometry" />
        </mxCell>
        <mxCell id="C-vyLk0tnHw3VtMMgP7b-3" value="" style="shape=partialRectangle;collapsible=0;dropTarget=0;pointerEvents=0;fillColor=none;points=[[0,0.5],[1,0.5]];portConstraint=eastwest;top=0;left=0;right=0;bottom=1;" parent="C-vyLk0tnHw3VtMMgP7b-2" vertex="1">
          <mxGeometry y="30" width="280" height="30" as="geometry" />
        </mxCell>
        <mxCell id="C-vyLk0tnHw3VtMMgP7b-4" value="PK" style="shape=partialRectangle;overflow=hidden;connectable=0;fillColor=none;top=0;left=0;bottom=0;right=0;fontStyle=1;" parent="C-vyLk0tnHw3VtMMgP7b-3" vertex="1">
          <mxGeometry width="30" height="30" as="geometry" />
        </mxCell>
        <mxCell id="C-vyLk0tnHw3VtMMgP7b-5" value="id long NOT NULL" style="shape=partialRectangle;overflow=hidden;connectable=0;fillColor=none;top=0;left=0;bottom=0;right=0;align=left;spacingLeft=6;fontStyle=5;" parent="C-vyLk0tnHw3VtMMgP7b-3" vertex="1">
          <mxGeometry x="30" width="250" height="30" as="geometry" />
        </mxCell>
        <mxCell id="C-vyLk0tnHw3VtMMgP7b-6" value="" style="shape=partialRectangle;collapsible=0;dropTarget=0;pointerEvents=0;fillColor=none;points=[[0,0.5],[1,0.5]];portConstraint=eastwest;top=0;left=0;right=0;bottom=0;" parent="C-vyLk0tnHw3VtMMgP7b-2" vertex="1">
          <mxGeometry y="60" width="280" height="30" as="geometry" />
        </mxCell>
        <mxCell id="C-vyLk0tnHw3VtMMgP7b-7" value="" style="shape=partialRectangle;overflow=hidden;connectable=0;fillColor=none;top=0;left=0;bottom=0;right=0;" parent="C-vyLk0tnHw3VtMMgP7b-6" vertex="1">
          <mxGeometry width="30" height="30" as="geometry" />
        </mxCell>
        <mxCell id="C-vyLk0tnHw3VtMMgP7b-8" value="username varchar NOT NULL" style="shape=partialRectangle;overflow=hidden;connectable=0;fillColor=none;top=0;left=0;bottom=0;right=0;align=left;spacingLeft=6;" parent="C-vyLk0tnHw3VtMMgP7b-6" vertex="1">
          <mxGeometry x="30" width="250" height="30" as="geometry" />
        </mxCell>
        <mxCell id="C-vyLk0tnHw3VtMMgP7b-9" value="" style="shape=partialRectangle;collapsible=0;dropTarget=0;pointerEvents=0;fillColor=none;points=[[0,0.5],[1,0.5]];portConstraint=eastwest;top=0;left=0;right=0;bottom=0;" parent="C-vyLk0tnHw3VtMMgP7b-2" vertex="1">
          <mxGeometry y="90" width="280" height="30" as="geometry" />
        </mxCell>
        <mxCell id="C-vyLk0tnHw3VtMMgP7b-10" value="" style="shape=partialRectangle;overflow=hidden;connectable=0;fillColor=none;top=0;left=0;bottom=0;right=0;" parent="C-vyLk0tnHw3VtMMgP7b-9" vertex="1">
          <mxGeometry width="30" height="30" as="geometry" />
        </mxCell>
        <mxCell id="C-vyLk0tnHw3VtMMgP7b-11" value="password varchar NOT NULL" style="shape=partialRectangle;overflow=hidden;connectable=0;fillColor=none;top=0;left=0;bottom=0;right=0;align=left;spacingLeft=6;" parent="C-vyLk0tnHw3VtMMgP7b-9" vertex="1">
          <mxGeometry x="30" width="250" height="30" as="geometry" />
        </mxCell>
        <mxCell id="Mv3i5eQ_VLfhkcZu6XRU-31" value="" style="shape=partialRectangle;collapsible=0;dropTarget=0;pointerEvents=0;fillColor=none;points=[[0,0.5],[1,0.5]];portConstraint=eastwest;top=0;left=0;right=0;bottom=0;" vertex="1" parent="C-vyLk0tnHw3VtMMgP7b-2">
          <mxGeometry y="120" width="280" height="30" as="geometry" />
        </mxCell>
        <mxCell id="Mv3i5eQ_VLfhkcZu6XRU-32" value="" style="shape=partialRectangle;overflow=hidden;connectable=0;fillColor=none;top=0;left=0;bottom=0;right=0;" vertex="1" parent="Mv3i5eQ_VLfhkcZu6XRU-31">
          <mxGeometry width="30" height="30" as="geometry" />
        </mxCell>
        <mxCell id="Mv3i5eQ_VLfhkcZu6XRU-33" value="name varchar NOT NULL" style="shape=partialRectangle;overflow=hidden;connectable=0;fillColor=none;top=0;left=0;bottom=0;right=0;align=left;spacingLeft=6;" vertex="1" parent="Mv3i5eQ_VLfhkcZu6XRU-31">
          <mxGeometry x="30" width="250" height="30" as="geometry" />
        </mxCell>
        <mxCell id="C-vyLk0tnHw3VtMMgP7b-23" value="Qna (1:1문의)" style="shape=table;startSize=30;container=1;collapsible=1;childLayout=tableLayout;fixedRows=1;rowLines=0;fontStyle=1;align=center;resizeLast=1;" parent="1" vertex="1">
          <mxGeometry x="-800" y="-1080" width="250" height="240" as="geometry" />
        </mxCell>
        <mxCell id="C-vyLk0tnHw3VtMMgP7b-24" value="" style="shape=partialRectangle;collapsible=0;dropTarget=0;pointerEvents=0;fillColor=none;points=[[0,0.5],[1,0.5]];portConstraint=eastwest;top=0;left=0;right=0;bottom=1;" parent="C-vyLk0tnHw3VtMMgP7b-23" vertex="1">
          <mxGeometry y="30" width="250" height="30" as="geometry" />
        </mxCell>
        <mxCell id="C-vyLk0tnHw3VtMMgP7b-25" value="PK" style="shape=partialRectangle;overflow=hidden;connectable=0;fillColor=none;top=0;left=0;bottom=0;right=0;fontStyle=1;" parent="C-vyLk0tnHw3VtMMgP7b-24" vertex="1">
          <mxGeometry width="30" height="30" as="geometry" />
        </mxCell>
        <mxCell id="C-vyLk0tnHw3VtMMgP7b-26" value="id long NOT NULL" style="shape=partialRectangle;overflow=hidden;connectable=0;fillColor=none;top=0;left=0;bottom=0;right=0;align=left;spacingLeft=6;fontStyle=5;" parent="C-vyLk0tnHw3VtMMgP7b-24" vertex="1">
          <mxGeometry x="30" width="220" height="30" as="geometry" />
        </mxCell>
        <mxCell id="C-vyLk0tnHw3VtMMgP7b-27" value="" style="shape=partialRectangle;collapsible=0;dropTarget=0;pointerEvents=0;fillColor=none;points=[[0,0.5],[1,0.5]];portConstraint=eastwest;top=0;left=0;right=0;bottom=0;" parent="C-vyLk0tnHw3VtMMgP7b-23" vertex="1">
          <mxGeometry y="60" width="250" height="30" as="geometry" />
        </mxCell>
        <mxCell id="C-vyLk0tnHw3VtMMgP7b-28" value="" style="shape=partialRectangle;overflow=hidden;connectable=0;fillColor=none;top=0;left=0;bottom=0;right=0;" parent="C-vyLk0tnHw3VtMMgP7b-27" vertex="1">
          <mxGeometry width="30" height="30" as="geometry" />
        </mxCell>
        <mxCell id="C-vyLk0tnHw3VtMMgP7b-29" value="title varchar" style="shape=partialRectangle;overflow=hidden;connectable=0;fillColor=none;top=0;left=0;bottom=0;right=0;align=left;spacingLeft=6;" parent="C-vyLk0tnHw3VtMMgP7b-27" vertex="1">
          <mxGeometry x="30" width="220" height="30" as="geometry" />
        </mxCell>
        <mxCell id="Mv3i5eQ_VLfhkcZu6XRU-15" value="" style="shape=partialRectangle;collapsible=0;dropTarget=0;pointerEvents=0;fillColor=none;points=[[0,0.5],[1,0.5]];portConstraint=eastwest;top=0;left=0;right=0;bottom=0;" vertex="1" parent="C-vyLk0tnHw3VtMMgP7b-23">
          <mxGeometry y="90" width="250" height="30" as="geometry" />
        </mxCell>
        <mxCell id="Mv3i5eQ_VLfhkcZu6XRU-16" value="" style="shape=partialRectangle;overflow=hidden;connectable=0;fillColor=none;top=0;left=0;bottom=0;right=0;" vertex="1" parent="Mv3i5eQ_VLfhkcZu6XRU-15">
          <mxGeometry width="30" height="30" as="geometry" />
        </mxCell>
        <mxCell id="Mv3i5eQ_VLfhkcZu6XRU-17" value="content varchar" style="shape=partialRectangle;overflow=hidden;connectable=0;fillColor=none;top=0;left=0;bottom=0;right=0;align=left;spacingLeft=6;" vertex="1" parent="Mv3i5eQ_VLfhkcZu6XRU-15">
          <mxGeometry x="30" width="220" height="30" as="geometry" />
        </mxCell>
        <mxCell id="Mv3i5eQ_VLfhkcZu6XRU-18" value="" style="shape=partialRectangle;collapsible=0;dropTarget=0;pointerEvents=0;fillColor=none;points=[[0,0.5],[1,0.5]];portConstraint=eastwest;top=0;left=0;right=0;bottom=0;" vertex="1" parent="C-vyLk0tnHw3VtMMgP7b-23">
          <mxGeometry y="120" width="250" height="30" as="geometry" />
        </mxCell>
        <mxCell id="Mv3i5eQ_VLfhkcZu6XRU-19" value="" style="shape=partialRectangle;overflow=hidden;connectable=0;fillColor=none;top=0;left=0;bottom=0;right=0;" vertex="1" parent="Mv3i5eQ_VLfhkcZu6XRU-18">
          <mxGeometry width="30" height="30" as="geometry" />
        </mxCell>
        <mxCell id="Mv3i5eQ_VLfhkcZu6XRU-20" value="state int (처리상태)" style="shape=partialRectangle;overflow=hidden;connectable=0;fillColor=none;top=0;left=0;bottom=0;right=0;align=left;spacingLeft=6;" vertex="1" parent="Mv3i5eQ_VLfhkcZu6XRU-18">
          <mxGeometry x="30" width="220" height="30" as="geometry" />
        </mxCell>
        <mxCell id="Mv3i5eQ_VLfhkcZu6XRU-21" value="" style="shape=partialRectangle;collapsible=0;dropTarget=0;pointerEvents=0;fillColor=none;points=[[0,0.5],[1,0.5]];portConstraint=eastwest;top=0;left=0;right=0;bottom=0;" vertex="1" parent="C-vyLk0tnHw3VtMMgP7b-23">
          <mxGeometry y="150" width="250" height="30" as="geometry" />
        </mxCell>
        <mxCell id="Mv3i5eQ_VLfhkcZu6XRU-22" value="FK" style="shape=partialRectangle;overflow=hidden;connectable=0;fillColor=none;top=0;left=0;bottom=0;right=0;" vertex="1" parent="Mv3i5eQ_VLfhkcZu6XRU-21">
          <mxGeometry width="30" height="30" as="geometry" />
        </mxCell>
        <mxCell id="Mv3i5eQ_VLfhkcZu6XRU-23" value="userId long" style="shape=partialRectangle;overflow=hidden;connectable=0;fillColor=none;top=0;left=0;bottom=0;right=0;align=left;spacingLeft=6;" vertex="1" parent="Mv3i5eQ_VLfhkcZu6XRU-21">
          <mxGeometry x="30" width="220" height="30" as="geometry" />
        </mxCell>
        <mxCell id="Mv3i5eQ_VLfhkcZu6XRU-24" value="" style="shape=partialRectangle;collapsible=0;dropTarget=0;pointerEvents=0;fillColor=none;points=[[0,0.5],[1,0.5]];portConstraint=eastwest;top=0;left=0;right=0;bottom=0;" vertex="1" parent="C-vyLk0tnHw3VtMMgP7b-23">
          <mxGeometry y="180" width="250" height="30" as="geometry" />
        </mxCell>
        <mxCell id="Mv3i5eQ_VLfhkcZu6XRU-25" value="" style="shape=partialRectangle;overflow=hidden;connectable=0;fillColor=none;top=0;left=0;bottom=0;right=0;" vertex="1" parent="Mv3i5eQ_VLfhkcZu6XRU-24">
          <mxGeometry width="30" height="30" as="geometry" />
        </mxCell>
        <mxCell id="Mv3i5eQ_VLfhkcZu6XRU-26" value="createDate Timestamp" style="shape=partialRectangle;overflow=hidden;connectable=0;fillColor=none;top=0;left=0;bottom=0;right=0;align=left;spacingLeft=6;" vertex="1" parent="Mv3i5eQ_VLfhkcZu6XRU-24">
          <mxGeometry x="30" width="220" height="30" as="geometry" />
        </mxCell>
        <mxCell id="Mv3i5eQ_VLfhkcZu6XRU-60" value="" style="shape=partialRectangle;collapsible=0;dropTarget=0;pointerEvents=0;fillColor=none;points=[[0,0.5],[1,0.5]];portConstraint=eastwest;top=0;left=0;right=0;bottom=0;" vertex="1" parent="1">
          <mxGeometry x="-440" y="-770" width="250" height="30" as="geometry" />
        </mxCell>
        <mxCell id="Mv3i5eQ_VLfhkcZu6XRU-61" value="" style="shape=partialRectangle;overflow=hidden;connectable=0;fillColor=none;top=0;left=0;bottom=0;right=0;" vertex="1" parent="Mv3i5eQ_VLfhkcZu6XRU-60">
          <mxGeometry width="30" height="30" as="geometry" />
        </mxCell>
        <mxCell id="Mv3i5eQ_VLfhkcZu6XRU-62" value="nickname varchar NOT NULL" style="shape=partialRectangle;overflow=hidden;connectable=0;fillColor=none;top=0;left=0;bottom=0;right=0;align=left;spacingLeft=6;" vertex="1" parent="Mv3i5eQ_VLfhkcZu6XRU-60">
          <mxGeometry x="30" width="220" height="30" as="geometry" />
        </mxCell>
        <mxCell id="Mv3i5eQ_VLfhkcZu6XRU-63" value="email varchar NOT NULL" style="shape=partialRectangle;overflow=hidden;connectable=0;fillColor=none;top=0;left=0;bottom=0;right=0;align=left;spacingLeft=6;" vertex="1" parent="1">
          <mxGeometry x="-410" y="-740" width="220" height="30" as="geometry" />
        </mxCell>
        <mxCell id="Mv3i5eQ_VLfhkcZu6XRU-65" value="phone varchar NOT NULL" style="shape=partialRectangle;overflow=hidden;connectable=0;fillColor=none;top=0;left=0;bottom=0;right=0;align=left;spacingLeft=6;" vertex="1" parent="1">
          <mxGeometry x="-410" y="-710" width="220" height="30" as="geometry" />
        </mxCell>
        <mxCell id="Mv3i5eQ_VLfhkcZu6XRU-66" value="role varchar (USER, ADMIN)" style="shape=partialRectangle;overflow=hidden;connectable=0;fillColor=none;top=0;left=0;bottom=0;right=0;align=left;spacingLeft=6;" vertex="1" parent="1">
          <mxGeometry x="-410" y="-680" width="250" height="30" as="geometry" />
        </mxCell>
        <mxCell id="Mv3i5eQ_VLfhkcZu6XRU-67" value="profileImage varchar" style="shape=partialRectangle;overflow=hidden;connectable=0;fillColor=none;top=0;left=0;bottom=0;right=0;align=left;spacingLeft=6;" vertex="1" parent="1">
          <mxGeometry x="-410" y="-650" width="250" height="30" as="geometry" />
        </mxCell>
        <mxCell id="Mv3i5eQ_VLfhkcZu6XRU-68" value="createDate Timestamp" style="shape=partialRectangle;overflow=hidden;connectable=0;fillColor=none;top=0;left=0;bottom=0;right=0;align=left;spacingLeft=6;" vertex="1" parent="1">
          <mxGeometry x="-410" y="-620" width="250" height="30" as="geometry" />
        </mxCell>
        <mxCell id="Mv3i5eQ_VLfhkcZu6XRU-116" value="" style="edgeStyle=orthogonalEdgeStyle;rounded=0;orthogonalLoop=1;jettySize=auto;html=1;startArrow=ERmany;startFill=0;endArrow=ERone;endFill=0;exitX=0.5;exitY=1;exitDx=0;exitDy=0;" edge="1" parent="1" source="Mv3i5eQ_VLfhkcZu6XRU-85" target="Mv3i5eQ_VLfhkcZu6XRU-103">
          <mxGeometry relative="1" as="geometry" />
        </mxCell>
        <mxCell id="Mv3i5eQ_VLfhkcZu6XRU-85" value="ExpectMovie (기대되는 영화)" style="shape=table;startSize=30;container=1;collapsible=1;childLayout=tableLayout;fixedRows=1;rowLines=0;fontStyle=1;align=center;resizeLast=1;" vertex="1" parent="1">
          <mxGeometry x="-800" y="-560" width="280" height="160" as="geometry" />
        </mxCell>
        <mxCell id="Mv3i5eQ_VLfhkcZu6XRU-86" value="" style="shape=partialRectangle;collapsible=0;dropTarget=0;pointerEvents=0;fillColor=none;points=[[0,0.5],[1,0.5]];portConstraint=eastwest;top=0;left=0;right=0;bottom=1;" vertex="1" parent="Mv3i5eQ_VLfhkcZu6XRU-85">
          <mxGeometry y="30" width="280" height="30" as="geometry" />
        </mxCell>
        <mxCell id="Mv3i5eQ_VLfhkcZu6XRU-87" value="PK" style="shape=partialRectangle;overflow=hidden;connectable=0;fillColor=none;top=0;left=0;bottom=0;right=0;fontStyle=1;" vertex="1" parent="Mv3i5eQ_VLfhkcZu6XRU-86">
          <mxGeometry width="30" height="30" as="geometry" />
        </mxCell>
        <mxCell id="Mv3i5eQ_VLfhkcZu6XRU-88" value="id long NOT NULL" style="shape=partialRectangle;overflow=hidden;connectable=0;fillColor=none;top=0;left=0;bottom=0;right=0;align=left;spacingLeft=6;fontStyle=5;" vertex="1" parent="Mv3i5eQ_VLfhkcZu6XRU-86">
          <mxGeometry x="30" width="250" height="30" as="geometry" />
        </mxCell>
        <mxCell id="Mv3i5eQ_VLfhkcZu6XRU-92" value="" style="shape=partialRectangle;collapsible=0;dropTarget=0;pointerEvents=0;fillColor=none;points=[[0,0.5],[1,0.5]];portConstraint=eastwest;top=0;left=0;right=0;bottom=0;" vertex="1" parent="Mv3i5eQ_VLfhkcZu6XRU-85">
          <mxGeometry y="60" width="280" height="30" as="geometry" />
        </mxCell>
        <mxCell id="Mv3i5eQ_VLfhkcZu6XRU-93" value="FK1" style="shape=partialRectangle;overflow=hidden;connectable=0;fillColor=none;top=0;left=0;bottom=0;right=0;" vertex="1" parent="Mv3i5eQ_VLfhkcZu6XRU-92">
          <mxGeometry width="30" height="30" as="geometry" />
        </mxCell>
        <mxCell id="Mv3i5eQ_VLfhkcZu6XRU-94" value="userId long" style="shape=partialRectangle;overflow=hidden;connectable=0;fillColor=none;top=0;left=0;bottom=0;right=0;align=left;spacingLeft=6;" vertex="1" parent="Mv3i5eQ_VLfhkcZu6XRU-92">
          <mxGeometry x="30" width="250" height="30" as="geometry" />
        </mxCell>
        <mxCell id="Mv3i5eQ_VLfhkcZu6XRU-89" value="" style="shape=partialRectangle;collapsible=0;dropTarget=0;pointerEvents=0;fillColor=none;points=[[0,0.5],[1,0.5]];portConstraint=eastwest;top=0;left=0;right=0;bottom=0;" vertex="1" parent="Mv3i5eQ_VLfhkcZu6XRU-85">
          <mxGeometry y="90" width="280" height="30" as="geometry" />
        </mxCell>
        <mxCell id="Mv3i5eQ_VLfhkcZu6XRU-90" value="FK2" style="shape=partialRectangle;overflow=hidden;connectable=0;fillColor=none;top=0;left=0;bottom=0;right=0;" vertex="1" parent="Mv3i5eQ_VLfhkcZu6XRU-89">
          <mxGeometry width="30" height="30" as="geometry" />
        </mxCell>
        <mxCell id="Mv3i5eQ_VLfhkcZu6XRU-91" value="movieId long" style="shape=partialRectangle;overflow=hidden;connectable=0;fillColor=none;top=0;left=0;bottom=0;right=0;align=left;spacingLeft=6;" vertex="1" parent="Mv3i5eQ_VLfhkcZu6XRU-89">
          <mxGeometry x="30" width="250" height="30" as="geometry" />
        </mxCell>
        <mxCell id="Mv3i5eQ_VLfhkcZu6XRU-95" value="" style="shape=partialRectangle;collapsible=0;dropTarget=0;pointerEvents=0;fillColor=none;points=[[0,0.5],[1,0.5]];portConstraint=eastwest;top=0;left=0;right=0;bottom=0;" vertex="1" parent="Mv3i5eQ_VLfhkcZu6XRU-85">
          <mxGeometry y="120" width="280" height="30" as="geometry" />
        </mxCell>
        <mxCell id="Mv3i5eQ_VLfhkcZu6XRU-96" value="" style="shape=partialRectangle;overflow=hidden;connectable=0;fillColor=none;top=0;left=0;bottom=0;right=0;" vertex="1" parent="Mv3i5eQ_VLfhkcZu6XRU-95">
          <mxGeometry width="30" height="30" as="geometry" />
        </mxCell>
        <mxCell id="Mv3i5eQ_VLfhkcZu6XRU-97" value="createDate Timestamp" style="shape=partialRectangle;overflow=hidden;connectable=0;fillColor=none;top=0;left=0;bottom=0;right=0;align=left;spacingLeft=6;" vertex="1" parent="Mv3i5eQ_VLfhkcZu6XRU-95">
          <mxGeometry x="30" width="250" height="30" as="geometry" />
        </mxCell>
        <mxCell id="Mv3i5eQ_VLfhkcZu6XRU-257" value="" style="edgeStyle=orthogonalEdgeStyle;rounded=0;orthogonalLoop=1;jettySize=auto;html=1;startArrow=ERone;startFill=0;endArrow=ERmany;endFill=0;exitX=1;exitY=0.5;exitDx=0;exitDy=0;" edge="1" parent="1" source="Mv3i5eQ_VLfhkcZu6XRU-117" target="Mv3i5eQ_VLfhkcZu6XRU-214">
          <mxGeometry relative="1" as="geometry" />
        </mxCell>
        <mxCell id="Mv3i5eQ_VLfhkcZu6XRU-103" value="Movie" style="shape=table;startSize=30;container=1;collapsible=1;childLayout=tableLayout;fixedRows=1;rowLines=0;fontStyle=1;align=center;resizeLast=1;" vertex="1" parent="1">
          <mxGeometry x="-800" y="-280" width="280" height="440" as="geometry" />
        </mxCell>
        <mxCell id="Mv3i5eQ_VLfhkcZu6XRU-104" value="" style="shape=partialRectangle;collapsible=0;dropTarget=0;pointerEvents=0;fillColor=none;points=[[0,0.5],[1,0.5]];portConstraint=eastwest;top=0;left=0;right=0;bottom=1;" vertex="1" parent="Mv3i5eQ_VLfhkcZu6XRU-103">
          <mxGeometry y="30" width="280" height="30" as="geometry" />
        </mxCell>
        <mxCell id="Mv3i5eQ_VLfhkcZu6XRU-105" value="PK" style="shape=partialRectangle;overflow=hidden;connectable=0;fillColor=none;top=0;left=0;bottom=0;right=0;fontStyle=1;" vertex="1" parent="Mv3i5eQ_VLfhkcZu6XRU-104">
          <mxGeometry width="30" height="30" as="geometry" />
        </mxCell>
        <mxCell id="Mv3i5eQ_VLfhkcZu6XRU-106" value="docId varchar NOT NULL" style="shape=partialRectangle;overflow=hidden;connectable=0;fillColor=none;top=0;left=0;bottom=0;right=0;align=left;spacingLeft=6;fontStyle=5;" vertex="1" parent="Mv3i5eQ_VLfhkcZu6XRU-104">
          <mxGeometry x="30" width="250" height="30" as="geometry" />
        </mxCell>
        <mxCell id="Mv3i5eQ_VLfhkcZu6XRU-107" value="" style="shape=partialRectangle;collapsible=0;dropTarget=0;pointerEvents=0;fillColor=none;points=[[0,0.5],[1,0.5]];portConstraint=eastwest;top=0;left=0;right=0;bottom=0;" vertex="1" parent="Mv3i5eQ_VLfhkcZu6XRU-103">
          <mxGeometry y="60" width="280" height="30" as="geometry" />
        </mxCell>
        <mxCell id="Mv3i5eQ_VLfhkcZu6XRU-108" value="" style="shape=partialRectangle;overflow=hidden;connectable=0;fillColor=none;top=0;left=0;bottom=0;right=0;" vertex="1" parent="Mv3i5eQ_VLfhkcZu6XRU-107">
          <mxGeometry width="30" height="30" as="geometry" />
        </mxCell>
        <mxCell id="Mv3i5eQ_VLfhkcZu6XRU-109" value="title varchar" style="shape=partialRectangle;overflow=hidden;connectable=0;fillColor=none;top=0;left=0;bottom=0;right=0;align=left;spacingLeft=6;" vertex="1" parent="Mv3i5eQ_VLfhkcZu6XRU-107">
          <mxGeometry x="30" width="250" height="30" as="geometry" />
        </mxCell>
        <mxCell id="Mv3i5eQ_VLfhkcZu6XRU-110" value="" style="shape=partialRectangle;collapsible=0;dropTarget=0;pointerEvents=0;fillColor=none;points=[[0,0.5],[1,0.5]];portConstraint=eastwest;top=0;left=0;right=0;bottom=0;" vertex="1" parent="Mv3i5eQ_VLfhkcZu6XRU-103">
          <mxGeometry y="90" width="280" height="30" as="geometry" />
        </mxCell>
        <mxCell id="Mv3i5eQ_VLfhkcZu6XRU-111" value="" style="shape=partialRectangle;overflow=hidden;connectable=0;fillColor=none;top=0;left=0;bottom=0;right=0;" vertex="1" parent="Mv3i5eQ_VLfhkcZu6XRU-110">
          <mxGeometry width="30" height="30" as="geometry" />
        </mxCell>
        <mxCell id="Mv3i5eQ_VLfhkcZu6XRU-112" value="subTitle varchar (영어제목)" style="shape=partialRectangle;overflow=hidden;connectable=0;fillColor=none;top=0;left=0;bottom=0;right=0;align=left;spacingLeft=6;" vertex="1" parent="Mv3i5eQ_VLfhkcZu6XRU-110">
          <mxGeometry x="30" width="250" height="30" as="geometry" />
        </mxCell>
        <mxCell id="Mv3i5eQ_VLfhkcZu6XRU-113" value="" style="shape=partialRectangle;collapsible=0;dropTarget=0;pointerEvents=0;fillColor=none;points=[[0,0.5],[1,0.5]];portConstraint=eastwest;top=0;left=0;right=0;bottom=0;" vertex="1" parent="Mv3i5eQ_VLfhkcZu6XRU-103">
          <mxGeometry y="120" width="280" height="30" as="geometry" />
        </mxCell>
        <mxCell id="Mv3i5eQ_VLfhkcZu6XRU-114" value="" style="shape=partialRectangle;overflow=hidden;connectable=0;fillColor=none;top=0;left=0;bottom=0;right=0;" vertex="1" parent="Mv3i5eQ_VLfhkcZu6XRU-113">
          <mxGeometry width="30" height="30" as="geometry" />
        </mxCell>
        <mxCell id="Mv3i5eQ_VLfhkcZu6XRU-115" value="genre varchar" style="shape=partialRectangle;overflow=hidden;connectable=0;fillColor=none;top=0;left=0;bottom=0;right=0;align=left;spacingLeft=6;" vertex="1" parent="Mv3i5eQ_VLfhkcZu6XRU-113">
          <mxGeometry x="30" width="250" height="30" as="geometry" />
        </mxCell>
        <mxCell id="Mv3i5eQ_VLfhkcZu6XRU-117" value="" style="shape=partialRectangle;collapsible=0;dropTarget=0;pointerEvents=0;fillColor=none;points=[[0,0.5],[1,0.5]];portConstraint=eastwest;top=0;left=0;right=0;bottom=0;" vertex="1" parent="Mv3i5eQ_VLfhkcZu6XRU-103">
          <mxGeometry y="150" width="280" height="30" as="geometry" />
        </mxCell>
        <mxCell id="Mv3i5eQ_VLfhkcZu6XRU-118" value="" style="shape=partialRectangle;overflow=hidden;connectable=0;fillColor=none;top=0;left=0;bottom=0;right=0;" vertex="1" parent="Mv3i5eQ_VLfhkcZu6XRU-117">
          <mxGeometry width="30" height="30" as="geometry" />
        </mxCell>
        <mxCell id="Mv3i5eQ_VLfhkcZu6XRU-119" value="age varchar (연령제한)" style="shape=partialRectangle;overflow=hidden;connectable=0;fillColor=none;top=0;left=0;bottom=0;right=0;align=left;spacingLeft=6;" vertex="1" parent="Mv3i5eQ_VLfhkcZu6XRU-117">
          <mxGeometry x="30" width="250" height="30" as="geometry" />
        </mxCell>
        <mxCell id="Mv3i5eQ_VLfhkcZu6XRU-120" value="" style="shape=partialRectangle;collapsible=0;dropTarget=0;pointerEvents=0;fillColor=none;points=[[0,0.5],[1,0.5]];portConstraint=eastwest;top=0;left=0;right=0;bottom=0;" vertex="1" parent="Mv3i5eQ_VLfhkcZu6XRU-103">
          <mxGeometry y="180" width="280" height="30" as="geometry" />
        </mxCell>
        <mxCell id="Mv3i5eQ_VLfhkcZu6XRU-121" value="" style="shape=partialRectangle;overflow=hidden;connectable=0;fillColor=none;top=0;left=0;bottom=0;right=0;" vertex="1" parent="Mv3i5eQ_VLfhkcZu6XRU-120">
          <mxGeometry width="30" height="30" as="geometry" />
        </mxCell>
        <mxCell id="Mv3i5eQ_VLfhkcZu6XRU-122" value="country varchar (영화 제작국가)" style="shape=partialRectangle;overflow=hidden;connectable=0;fillColor=none;top=0;left=0;bottom=0;right=0;align=left;spacingLeft=6;" vertex="1" parent="Mv3i5eQ_VLfhkcZu6XRU-120">
          <mxGeometry x="30" width="250" height="30" as="geometry" />
        </mxCell>
        <mxCell id="Mv3i5eQ_VLfhkcZu6XRU-123" value="" style="shape=partialRectangle;collapsible=0;dropTarget=0;pointerEvents=0;fillColor=none;points=[[0,0.5],[1,0.5]];portConstraint=eastwest;top=0;left=0;right=0;bottom=0;" vertex="1" parent="Mv3i5eQ_VLfhkcZu6XRU-103">
          <mxGeometry y="210" width="280" height="30" as="geometry" />
        </mxCell>
        <mxCell id="Mv3i5eQ_VLfhkcZu6XRU-124" value="" style="shape=partialRectangle;overflow=hidden;connectable=0;fillColor=none;top=0;left=0;bottom=0;right=0;" vertex="1" parent="Mv3i5eQ_VLfhkcZu6XRU-123">
          <mxGeometry width="30" height="30" as="geometry" />
        </mxCell>
        <mxCell id="Mv3i5eQ_VLfhkcZu6XRU-125" value="company varchar (영화 제작사)" style="shape=partialRectangle;overflow=hidden;connectable=0;fillColor=none;top=0;left=0;bottom=0;right=0;align=left;spacingLeft=6;" vertex="1" parent="Mv3i5eQ_VLfhkcZu6XRU-123">
          <mxGeometry x="30" width="250" height="30" as="geometry" />
        </mxCell>
        <mxCell id="Mv3i5eQ_VLfhkcZu6XRU-126" value="" style="shape=partialRectangle;collapsible=0;dropTarget=0;pointerEvents=0;fillColor=none;points=[[0,0.5],[1,0.5]];portConstraint=eastwest;top=0;left=0;right=0;bottom=0;" vertex="1" parent="Mv3i5eQ_VLfhkcZu6XRU-103">
          <mxGeometry y="240" width="280" height="30" as="geometry" />
        </mxCell>
        <mxCell id="Mv3i5eQ_VLfhkcZu6XRU-127" value="" style="shape=partialRectangle;overflow=hidden;connectable=0;fillColor=none;top=0;left=0;bottom=0;right=0;" vertex="1" parent="Mv3i5eQ_VLfhkcZu6XRU-126">
          <mxGeometry width="30" height="30" as="geometry" />
        </mxCell>
        <mxCell id="Mv3i5eQ_VLfhkcZu6XRU-128" value="runningTime int (러닝타임)" style="shape=partialRectangle;overflow=hidden;connectable=0;fillColor=none;top=0;left=0;bottom=0;right=0;align=left;spacingLeft=6;" vertex="1" parent="Mv3i5eQ_VLfhkcZu6XRU-126">
          <mxGeometry x="30" width="250" height="30" as="geometry" />
        </mxCell>
        <mxCell id="Mv3i5eQ_VLfhkcZu6XRU-129" value="" style="shape=partialRectangle;collapsible=0;dropTarget=0;pointerEvents=0;fillColor=none;points=[[0,0.5],[1,0.5]];portConstraint=eastwest;top=0;left=0;right=0;bottom=0;" vertex="1" parent="Mv3i5eQ_VLfhkcZu6XRU-103">
          <mxGeometry y="270" width="280" height="30" as="geometry" />
        </mxCell>
        <mxCell id="Mv3i5eQ_VLfhkcZu6XRU-130" value="" style="shape=partialRectangle;overflow=hidden;connectable=0;fillColor=none;top=0;left=0;bottom=0;right=0;" vertex="1" parent="Mv3i5eQ_VLfhkcZu6XRU-129">
          <mxGeometry width="30" height="30" as="geometry" />
        </mxCell>
        <mxCell id="Mv3i5eQ_VLfhkcZu6XRU-131" value="releaseDate Timestamp (상영일자)" style="shape=partialRectangle;overflow=hidden;connectable=0;fillColor=none;top=0;left=0;bottom=0;right=0;align=left;spacingLeft=6;" vertex="1" parent="Mv3i5eQ_VLfhkcZu6XRU-129">
          <mxGeometry x="30" width="250" height="30" as="geometry" />
        </mxCell>
        <mxCell id="Mv3i5eQ_VLfhkcZu6XRU-132" value="" style="shape=partialRectangle;collapsible=0;dropTarget=0;pointerEvents=0;fillColor=none;points=[[0,0.5],[1,0.5]];portConstraint=eastwest;top=0;left=0;right=0;bottom=0;" vertex="1" parent="Mv3i5eQ_VLfhkcZu6XRU-103">
          <mxGeometry y="300" width="280" height="30" as="geometry" />
        </mxCell>
        <mxCell id="Mv3i5eQ_VLfhkcZu6XRU-133" value="" style="shape=partialRectangle;overflow=hidden;connectable=0;fillColor=none;top=0;left=0;bottom=0;right=0;" vertex="1" parent="Mv3i5eQ_VLfhkcZu6XRU-132">
          <mxGeometry width="30" height="30" as="geometry" />
        </mxCell>
        <mxCell id="Mv3i5eQ_VLfhkcZu6XRU-134" value="state int (상영상태)" style="shape=partialRectangle;overflow=hidden;connectable=0;fillColor=none;top=0;left=0;bottom=0;right=0;align=left;spacingLeft=6;" vertex="1" parent="Mv3i5eQ_VLfhkcZu6XRU-132">
          <mxGeometry x="30" width="250" height="30" as="geometry" />
        </mxCell>
        <mxCell id="Mv3i5eQ_VLfhkcZu6XRU-138" value="" style="shape=partialRectangle;collapsible=0;dropTarget=0;pointerEvents=0;fillColor=none;points=[[0,0.5],[1,0.5]];portConstraint=eastwest;top=0;left=0;right=0;bottom=0;" vertex="1" parent="Mv3i5eQ_VLfhkcZu6XRU-103">
          <mxGeometry y="330" width="280" height="30" as="geometry" />
        </mxCell>
        <mxCell id="Mv3i5eQ_VLfhkcZu6XRU-139" value="" style="shape=partialRectangle;overflow=hidden;connectable=0;fillColor=none;top=0;left=0;bottom=0;right=0;" vertex="1" parent="Mv3i5eQ_VLfhkcZu6XRU-138">
          <mxGeometry width="30" height="30" as="geometry" />
        </mxCell>
        <mxCell id="Mv3i5eQ_VLfhkcZu6XRU-140" value="summary varchar (줄거리,시놉)" style="shape=partialRectangle;overflow=hidden;connectable=0;fillColor=none;top=0;left=0;bottom=0;right=0;align=left;spacingLeft=6;" vertex="1" parent="Mv3i5eQ_VLfhkcZu6XRU-138">
          <mxGeometry x="30" width="250" height="30" as="geometry" />
        </mxCell>
        <mxCell id="Mv3i5eQ_VLfhkcZu6XRU-135" value="" style="shape=partialRectangle;collapsible=0;dropTarget=0;pointerEvents=0;fillColor=none;points=[[0,0.5],[1,0.5]];portConstraint=eastwest;top=0;left=0;right=0;bottom=0;" vertex="1" parent="Mv3i5eQ_VLfhkcZu6XRU-103">
          <mxGeometry y="360" width="280" height="30" as="geometry" />
        </mxCell>
        <mxCell id="Mv3i5eQ_VLfhkcZu6XRU-136" value="" style="shape=partialRectangle;overflow=hidden;connectable=0;fillColor=none;top=0;left=0;bottom=0;right=0;" vertex="1" parent="Mv3i5eQ_VLfhkcZu6XRU-135">
          <mxGeometry width="30" height="30" as="geometry" />
        </mxCell>
        <mxCell id="Mv3i5eQ_VLfhkcZu6XRU-137" value="disribute varchar" style="shape=partialRectangle;overflow=hidden;connectable=0;fillColor=none;top=0;left=0;bottom=0;right=0;align=left;spacingLeft=6;" vertex="1" parent="Mv3i5eQ_VLfhkcZu6XRU-135">
          <mxGeometry x="30" width="250" height="30" as="geometry" />
        </mxCell>
        <mxCell id="Mv3i5eQ_VLfhkcZu6XRU-141" value="" style="shape=partialRectangle;collapsible=0;dropTarget=0;pointerEvents=0;fillColor=none;points=[[0,0.5],[1,0.5]];portConstraint=eastwest;top=0;left=0;right=0;bottom=0;" vertex="1" parent="Mv3i5eQ_VLfhkcZu6XRU-103">
          <mxGeometry y="390" width="280" height="30" as="geometry" />
        </mxCell>
        <mxCell id="Mv3i5eQ_VLfhkcZu6XRU-142" value="" style="shape=partialRectangle;overflow=hidden;connectable=0;fillColor=none;top=0;left=0;bottom=0;right=0;" vertex="1" parent="Mv3i5eQ_VLfhkcZu6XRU-141">
          <mxGeometry width="30" height="30" as="geometry" />
        </mxCell>
        <mxCell id="Mv3i5eQ_VLfhkcZu6XRU-143" value="posterImgSrc varchar" style="shape=partialRectangle;overflow=hidden;connectable=0;fillColor=none;top=0;left=0;bottom=0;right=0;align=left;spacingLeft=6;" vertex="1" parent="Mv3i5eQ_VLfhkcZu6XRU-141">
          <mxGeometry x="30" width="250" height="30" as="geometry" />
        </mxCell>
        <mxCell id="Mv3i5eQ_VLfhkcZu6XRU-186" value="" style="edgeStyle=orthogonalEdgeStyle;rounded=0;orthogonalLoop=1;jettySize=auto;html=1;startArrow=ERone;startFill=0;endArrow=ERmany;endFill=0;" edge="1" parent="1" source="Mv3i5eQ_VLfhkcZu6XRU-147" target="Mv3i5eQ_VLfhkcZu6XRU-167">
          <mxGeometry relative="1" as="geometry" />
        </mxCell>
        <mxCell id="Mv3i5eQ_VLfhkcZu6XRU-147" value="Review (감상평)" style="shape=table;startSize=30;container=1;collapsible=1;childLayout=tableLayout;fixedRows=1;rowLines=0;fontStyle=1;align=center;resizeLast=1;" vertex="1" parent="1">
          <mxGeometry x="-80" y="-800" width="280" height="240" as="geometry" />
        </mxCell>
        <mxCell id="Mv3i5eQ_VLfhkcZu6XRU-148" value="" style="shape=partialRectangle;collapsible=0;dropTarget=0;pointerEvents=0;fillColor=none;points=[[0,0.5],[1,0.5]];portConstraint=eastwest;top=0;left=0;right=0;bottom=1;" vertex="1" parent="Mv3i5eQ_VLfhkcZu6XRU-147">
          <mxGeometry y="30" width="280" height="30" as="geometry" />
        </mxCell>
        <mxCell id="Mv3i5eQ_VLfhkcZu6XRU-149" value="PK" style="shape=partialRectangle;overflow=hidden;connectable=0;fillColor=none;top=0;left=0;bottom=0;right=0;fontStyle=1;" vertex="1" parent="Mv3i5eQ_VLfhkcZu6XRU-148">
          <mxGeometry width="30" height="30" as="geometry" />
        </mxCell>
        <mxCell id="Mv3i5eQ_VLfhkcZu6XRU-150" value="id long NOT NULL" style="shape=partialRectangle;overflow=hidden;connectable=0;fillColor=none;top=0;left=0;bottom=0;right=0;align=left;spacingLeft=6;fontStyle=5;" vertex="1" parent="Mv3i5eQ_VLfhkcZu6XRU-148">
          <mxGeometry x="30" width="250" height="30" as="geometry" />
        </mxCell>
        <mxCell id="Mv3i5eQ_VLfhkcZu6XRU-151" value="" style="shape=partialRectangle;collapsible=0;dropTarget=0;pointerEvents=0;fillColor=none;points=[[0,0.5],[1,0.5]];portConstraint=eastwest;top=0;left=0;right=0;bottom=0;" vertex="1" parent="Mv3i5eQ_VLfhkcZu6XRU-147">
          <mxGeometry y="60" width="280" height="30" as="geometry" />
        </mxCell>
        <mxCell id="Mv3i5eQ_VLfhkcZu6XRU-152" value="FK1" style="shape=partialRectangle;overflow=hidden;connectable=0;fillColor=none;top=0;left=0;bottom=0;right=0;" vertex="1" parent="Mv3i5eQ_VLfhkcZu6XRU-151">
          <mxGeometry width="30" height="30" as="geometry" />
        </mxCell>
        <mxCell id="Mv3i5eQ_VLfhkcZu6XRU-153" value="userId long" style="shape=partialRectangle;overflow=hidden;connectable=0;fillColor=none;top=0;left=0;bottom=0;right=0;align=left;spacingLeft=6;" vertex="1" parent="Mv3i5eQ_VLfhkcZu6XRU-151">
          <mxGeometry x="30" width="250" height="30" as="geometry" />
        </mxCell>
        <mxCell id="Mv3i5eQ_VLfhkcZu6XRU-154" value="" style="shape=partialRectangle;collapsible=0;dropTarget=0;pointerEvents=0;fillColor=none;points=[[0,0.5],[1,0.5]];portConstraint=eastwest;top=0;left=0;right=0;bottom=0;" vertex="1" parent="Mv3i5eQ_VLfhkcZu6XRU-147">
          <mxGeometry y="90" width="280" height="30" as="geometry" />
        </mxCell>
        <mxCell id="Mv3i5eQ_VLfhkcZu6XRU-155" value="" style="shape=partialRectangle;overflow=hidden;connectable=0;fillColor=none;top=0;left=0;bottom=0;right=0;" vertex="1" parent="Mv3i5eQ_VLfhkcZu6XRU-154">
          <mxGeometry width="30" height="30" as="geometry" />
        </mxCell>
        <mxCell id="Mv3i5eQ_VLfhkcZu6XRU-156" value="content varchar" style="shape=partialRectangle;overflow=hidden;connectable=0;fillColor=none;top=0;left=0;bottom=0;right=0;align=left;spacingLeft=6;" vertex="1" parent="Mv3i5eQ_VLfhkcZu6XRU-154">
          <mxGeometry x="30" width="250" height="30" as="geometry" />
        </mxCell>
        <mxCell id="Mv3i5eQ_VLfhkcZu6XRU-157" value="" style="shape=partialRectangle;collapsible=0;dropTarget=0;pointerEvents=0;fillColor=none;points=[[0,0.5],[1,0.5]];portConstraint=eastwest;top=0;left=0;right=0;bottom=0;" vertex="1" parent="Mv3i5eQ_VLfhkcZu6XRU-147">
          <mxGeometry y="120" width="280" height="30" as="geometry" />
        </mxCell>
        <mxCell id="Mv3i5eQ_VLfhkcZu6XRU-158" value="FK2" style="shape=partialRectangle;overflow=hidden;connectable=0;fillColor=none;top=0;left=0;bottom=0;right=0;" vertex="1" parent="Mv3i5eQ_VLfhkcZu6XRU-157">
          <mxGeometry width="30" height="30" as="geometry" />
        </mxCell>
        <mxCell id="Mv3i5eQ_VLfhkcZu6XRU-159" value="movieId long" style="shape=partialRectangle;overflow=hidden;connectable=0;fillColor=none;top=0;left=0;bottom=0;right=0;align=left;spacingLeft=6;" vertex="1" parent="Mv3i5eQ_VLfhkcZu6XRU-157">
          <mxGeometry x="30" width="250" height="30" as="geometry" />
        </mxCell>
        <mxCell id="Mv3i5eQ_VLfhkcZu6XRU-161" value="" style="shape=partialRectangle;collapsible=0;dropTarget=0;pointerEvents=0;fillColor=none;points=[[0,0.5],[1,0.5]];portConstraint=eastwest;top=0;left=0;right=0;bottom=0;" vertex="1" parent="Mv3i5eQ_VLfhkcZu6XRU-147">
          <mxGeometry y="150" width="280" height="30" as="geometry" />
        </mxCell>
        <mxCell id="Mv3i5eQ_VLfhkcZu6XRU-162" value="" style="shape=partialRectangle;overflow=hidden;connectable=0;fillColor=none;top=0;left=0;bottom=0;right=0;" vertex="1" parent="Mv3i5eQ_VLfhkcZu6XRU-161">
          <mxGeometry width="30" height="30" as="geometry" />
        </mxCell>
        <mxCell id="Mv3i5eQ_VLfhkcZu6XRU-163" value="isLike int (좋아요 유무)" style="shape=partialRectangle;overflow=hidden;connectable=0;fillColor=none;top=0;left=0;bottom=0;right=0;align=left;spacingLeft=6;" vertex="1" parent="Mv3i5eQ_VLfhkcZu6XRU-161">
          <mxGeometry x="30" width="250" height="30" as="geometry" />
        </mxCell>
        <mxCell id="Mv3i5eQ_VLfhkcZu6XRU-164" value="" style="shape=partialRectangle;collapsible=0;dropTarget=0;pointerEvents=0;fillColor=none;points=[[0,0.5],[1,0.5]];portConstraint=eastwest;top=0;left=0;right=0;bottom=0;" vertex="1" parent="Mv3i5eQ_VLfhkcZu6XRU-147">
          <mxGeometry y="180" width="280" height="30" as="geometry" />
        </mxCell>
        <mxCell id="Mv3i5eQ_VLfhkcZu6XRU-165" value="" style="shape=partialRectangle;overflow=hidden;connectable=0;fillColor=none;top=0;left=0;bottom=0;right=0;" vertex="1" parent="Mv3i5eQ_VLfhkcZu6XRU-164">
          <mxGeometry width="30" height="30" as="geometry" />
        </mxCell>
        <mxCell id="Mv3i5eQ_VLfhkcZu6XRU-166" value="createDate Timestamp" style="shape=partialRectangle;overflow=hidden;connectable=0;fillColor=none;top=0;left=0;bottom=0;right=0;align=left;spacingLeft=6;" vertex="1" parent="Mv3i5eQ_VLfhkcZu6XRU-164">
          <mxGeometry x="30" width="250" height="30" as="geometry" />
        </mxCell>
        <mxCell id="Mv3i5eQ_VLfhkcZu6XRU-167" value="Reply (감상평 댓글)" style="shape=table;startSize=30;container=1;collapsible=1;childLayout=tableLayout;fixedRows=1;rowLines=0;fontStyle=1;align=center;resizeLast=1;" vertex="1" parent="1">
          <mxGeometry x="-80" y="-1080" width="280" height="240" as="geometry" />
        </mxCell>
        <mxCell id="Mv3i5eQ_VLfhkcZu6XRU-168" value="" style="shape=partialRectangle;collapsible=0;dropTarget=0;pointerEvents=0;fillColor=none;points=[[0,0.5],[1,0.5]];portConstraint=eastwest;top=0;left=0;right=0;bottom=1;" vertex="1" parent="Mv3i5eQ_VLfhkcZu6XRU-167">
          <mxGeometry y="30" width="280" height="30" as="geometry" />
        </mxCell>
        <mxCell id="Mv3i5eQ_VLfhkcZu6XRU-169" value="PK" style="shape=partialRectangle;overflow=hidden;connectable=0;fillColor=none;top=0;left=0;bottom=0;right=0;fontStyle=1;" vertex="1" parent="Mv3i5eQ_VLfhkcZu6XRU-168">
          <mxGeometry width="30" height="30" as="geometry" />
        </mxCell>
        <mxCell id="Mv3i5eQ_VLfhkcZu6XRU-170" value="id long NOT NULL" style="shape=partialRectangle;overflow=hidden;connectable=0;fillColor=none;top=0;left=0;bottom=0;right=0;align=left;spacingLeft=6;fontStyle=5;" vertex="1" parent="Mv3i5eQ_VLfhkcZu6XRU-168">
          <mxGeometry x="30" width="250" height="30" as="geometry" />
        </mxCell>
        <mxCell id="Mv3i5eQ_VLfhkcZu6XRU-171" value="" style="shape=partialRectangle;collapsible=0;dropTarget=0;pointerEvents=0;fillColor=none;points=[[0,0.5],[1,0.5]];portConstraint=eastwest;top=0;left=0;right=0;bottom=0;" vertex="1" parent="Mv3i5eQ_VLfhkcZu6XRU-167">
          <mxGeometry y="60" width="280" height="30" as="geometry" />
        </mxCell>
        <mxCell id="Mv3i5eQ_VLfhkcZu6XRU-172" value="FK1" style="shape=partialRectangle;overflow=hidden;connectable=0;fillColor=none;top=0;left=0;bottom=0;right=0;" vertex="1" parent="Mv3i5eQ_VLfhkcZu6XRU-171">
          <mxGeometry width="30" height="30" as="geometry" />
        </mxCell>
        <mxCell id="Mv3i5eQ_VLfhkcZu6XRU-173" value="userId long" style="shape=partialRectangle;overflow=hidden;connectable=0;fillColor=none;top=0;left=0;bottom=0;right=0;align=left;spacingLeft=6;" vertex="1" parent="Mv3i5eQ_VLfhkcZu6XRU-171">
          <mxGeometry x="30" width="250" height="30" as="geometry" />
        </mxCell>
        <mxCell id="Mv3i5eQ_VLfhkcZu6XRU-174" value="" style="shape=partialRectangle;collapsible=0;dropTarget=0;pointerEvents=0;fillColor=none;points=[[0,0.5],[1,0.5]];portConstraint=eastwest;top=0;left=0;right=0;bottom=0;" vertex="1" parent="Mv3i5eQ_VLfhkcZu6XRU-167">
          <mxGeometry y="90" width="280" height="30" as="geometry" />
        </mxCell>
        <mxCell id="Mv3i5eQ_VLfhkcZu6XRU-175" value="" style="shape=partialRectangle;overflow=hidden;connectable=0;fillColor=none;top=0;left=0;bottom=0;right=0;" vertex="1" parent="Mv3i5eQ_VLfhkcZu6XRU-174">
          <mxGeometry width="30" height="30" as="geometry" />
        </mxCell>
        <mxCell id="Mv3i5eQ_VLfhkcZu6XRU-176" value="content varchar" style="shape=partialRectangle;overflow=hidden;connectable=0;fillColor=none;top=0;left=0;bottom=0;right=0;align=left;spacingLeft=6;" vertex="1" parent="Mv3i5eQ_VLfhkcZu6XRU-174">
          <mxGeometry x="30" width="250" height="30" as="geometry" />
        </mxCell>
        <mxCell id="Mv3i5eQ_VLfhkcZu6XRU-177" value="" style="shape=partialRectangle;collapsible=0;dropTarget=0;pointerEvents=0;fillColor=none;points=[[0,0.5],[1,0.5]];portConstraint=eastwest;top=0;left=0;right=0;bottom=0;" vertex="1" parent="Mv3i5eQ_VLfhkcZu6XRU-167">
          <mxGeometry y="120" width="280" height="30" as="geometry" />
        </mxCell>
        <mxCell id="Mv3i5eQ_VLfhkcZu6XRU-178" value="FK2" style="shape=partialRectangle;overflow=hidden;connectable=0;fillColor=none;top=0;left=0;bottom=0;right=0;" vertex="1" parent="Mv3i5eQ_VLfhkcZu6XRU-177">
          <mxGeometry width="30" height="30" as="geometry" />
        </mxCell>
        <mxCell id="Mv3i5eQ_VLfhkcZu6XRU-179" value="reviewId long" style="shape=partialRectangle;overflow=hidden;connectable=0;fillColor=none;top=0;left=0;bottom=0;right=0;align=left;spacingLeft=6;" vertex="1" parent="Mv3i5eQ_VLfhkcZu6XRU-177">
          <mxGeometry x="30" width="250" height="30" as="geometry" />
        </mxCell>
        <mxCell id="Mv3i5eQ_VLfhkcZu6XRU-183" value="" style="shape=partialRectangle;collapsible=0;dropTarget=0;pointerEvents=0;fillColor=none;points=[[0,0.5],[1,0.5]];portConstraint=eastwest;top=0;left=0;right=0;bottom=0;" vertex="1" parent="Mv3i5eQ_VLfhkcZu6XRU-167">
          <mxGeometry y="150" width="280" height="30" as="geometry" />
        </mxCell>
        <mxCell id="Mv3i5eQ_VLfhkcZu6XRU-184" value="" style="shape=partialRectangle;overflow=hidden;connectable=0;fillColor=none;top=0;left=0;bottom=0;right=0;" vertex="1" parent="Mv3i5eQ_VLfhkcZu6XRU-183">
          <mxGeometry width="30" height="30" as="geometry" />
        </mxCell>
        <mxCell id="Mv3i5eQ_VLfhkcZu6XRU-185" value="createDate Timestamp" style="shape=partialRectangle;overflow=hidden;connectable=0;fillColor=none;top=0;left=0;bottom=0;right=0;align=left;spacingLeft=6;" vertex="1" parent="Mv3i5eQ_VLfhkcZu6XRU-183">
          <mxGeometry x="30" width="250" height="30" as="geometry" />
        </mxCell>
        <mxCell id="Mv3i5eQ_VLfhkcZu6XRU-180" value="" style="shape=partialRectangle;collapsible=0;dropTarget=0;pointerEvents=0;fillColor=none;points=[[0,0.5],[1,0.5]];portConstraint=eastwest;top=0;left=0;right=0;bottom=0;" vertex="1" parent="Mv3i5eQ_VLfhkcZu6XRU-167">
          <mxGeometry y="180" width="280" height="30" as="geometry" />
        </mxCell>
        <mxCell id="Mv3i5eQ_VLfhkcZu6XRU-181" value="" style="shape=partialRectangle;overflow=hidden;connectable=0;fillColor=none;top=0;left=0;bottom=0;right=0;" vertex="1" parent="Mv3i5eQ_VLfhkcZu6XRU-180">
          <mxGeometry width="30" height="30" as="geometry" />
        </mxCell>
        <mxCell id="Mv3i5eQ_VLfhkcZu6XRU-182" value="" style="shape=partialRectangle;overflow=hidden;connectable=0;fillColor=none;top=0;left=0;bottom=0;right=0;align=left;spacingLeft=6;" vertex="1" parent="Mv3i5eQ_VLfhkcZu6XRU-180">
          <mxGeometry x="30" width="250" height="30" as="geometry" />
        </mxCell>
        <mxCell id="Mv3i5eQ_VLfhkcZu6XRU-187" value="" style="edgeStyle=entityRelationEdgeStyle;fontSize=12;html=1;endArrow=ERoneToMany;exitX=1;exitY=0.5;exitDx=0;exitDy=0;startArrow=ERone;startFill=0;" edge="1" parent="1" source="Mv3i5eQ_VLfhkcZu6XRU-31" target="Mv3i5eQ_VLfhkcZu6XRU-167">
          <mxGeometry width="100" height="100" relative="1" as="geometry">
            <mxPoint x="-240" y="-960" as="sourcePoint" />
            <mxPoint x="-140" y="-1060" as="targetPoint" />
          </mxGeometry>
        </mxCell>
        <mxCell id="Mv3i5eQ_VLfhkcZu6XRU-188" value="Ticketing (예매)" style="shape=table;startSize=30;container=1;collapsible=1;childLayout=tableLayout;fixedRows=1;rowLines=0;fontStyle=1;align=center;resizeLast=1;" vertex="1" parent="1">
          <mxGeometry x="-80" y="-480" width="280" height="280" as="geometry" />
        </mxCell>
        <mxCell id="Mv3i5eQ_VLfhkcZu6XRU-189" value="" style="shape=partialRectangle;collapsible=0;dropTarget=0;pointerEvents=0;fillColor=none;points=[[0,0.5],[1,0.5]];portConstraint=eastwest;top=0;left=0;right=0;bottom=1;" vertex="1" parent="Mv3i5eQ_VLfhkcZu6XRU-188">
          <mxGeometry y="30" width="280" height="30" as="geometry" />
        </mxCell>
        <mxCell id="Mv3i5eQ_VLfhkcZu6XRU-190" value="PK" style="shape=partialRectangle;overflow=hidden;connectable=0;fillColor=none;top=0;left=0;bottom=0;right=0;fontStyle=1;" vertex="1" parent="Mv3i5eQ_VLfhkcZu6XRU-189">
          <mxGeometry width="30" height="30" as="geometry" />
        </mxCell>
        <mxCell id="Mv3i5eQ_VLfhkcZu6XRU-191" value="id long NOT NULL" style="shape=partialRectangle;overflow=hidden;connectable=0;fillColor=none;top=0;left=0;bottom=0;right=0;align=left;spacingLeft=6;fontStyle=5;" vertex="1" parent="Mv3i5eQ_VLfhkcZu6XRU-189">
          <mxGeometry x="30" width="250" height="30" as="geometry" />
        </mxCell>
        <mxCell id="Mv3i5eQ_VLfhkcZu6XRU-192" value="" style="shape=partialRectangle;collapsible=0;dropTarget=0;pointerEvents=0;fillColor=none;points=[[0,0.5],[1,0.5]];portConstraint=eastwest;top=0;left=0;right=0;bottom=0;" vertex="1" parent="Mv3i5eQ_VLfhkcZu6XRU-188">
          <mxGeometry y="60" width="280" height="30" as="geometry" />
        </mxCell>
        <mxCell id="Mv3i5eQ_VLfhkcZu6XRU-193" value="FK1" style="shape=partialRectangle;overflow=hidden;connectable=0;fillColor=none;top=0;left=0;bottom=0;right=0;" vertex="1" parent="Mv3i5eQ_VLfhkcZu6XRU-192">
          <mxGeometry width="30" height="30" as="geometry" />
        </mxCell>
        <mxCell id="Mv3i5eQ_VLfhkcZu6XRU-194" value="userId long" style="shape=partialRectangle;overflow=hidden;connectable=0;fillColor=none;top=0;left=0;bottom=0;right=0;align=left;spacingLeft=6;" vertex="1" parent="Mv3i5eQ_VLfhkcZu6XRU-192">
          <mxGeometry x="30" width="250" height="30" as="geometry" />
        </mxCell>
        <mxCell id="Mv3i5eQ_VLfhkcZu6XRU-195" value="" style="shape=partialRectangle;collapsible=0;dropTarget=0;pointerEvents=0;fillColor=none;points=[[0,0.5],[1,0.5]];portConstraint=eastwest;top=0;left=0;right=0;bottom=0;" vertex="1" parent="Mv3i5eQ_VLfhkcZu6XRU-188">
          <mxGeometry y="90" width="280" height="30" as="geometry" />
        </mxCell>
        <mxCell id="Mv3i5eQ_VLfhkcZu6XRU-196" value="" style="shape=partialRectangle;overflow=hidden;connectable=0;fillColor=none;top=0;left=0;bottom=0;right=0;" vertex="1" parent="Mv3i5eQ_VLfhkcZu6XRU-195">
          <mxGeometry width="30" height="30" as="geometry" />
        </mxCell>
        <mxCell id="Mv3i5eQ_VLfhkcZu6XRU-197" value="ticketNum varchar" style="shape=partialRectangle;overflow=hidden;connectable=0;fillColor=none;top=0;left=0;bottom=0;right=0;align=left;spacingLeft=6;" vertex="1" parent="Mv3i5eQ_VLfhkcZu6XRU-195">
          <mxGeometry x="30" width="250" height="30" as="geometry" />
        </mxCell>
        <mxCell id="Mv3i5eQ_VLfhkcZu6XRU-198" value="" style="shape=partialRectangle;collapsible=0;dropTarget=0;pointerEvents=0;fillColor=none;points=[[0,0.5],[1,0.5]];portConstraint=eastwest;top=0;left=0;right=0;bottom=0;" vertex="1" parent="Mv3i5eQ_VLfhkcZu6XRU-188">
          <mxGeometry y="120" width="280" height="30" as="geometry" />
        </mxCell>
        <mxCell id="Mv3i5eQ_VLfhkcZu6XRU-199" value="" style="shape=partialRectangle;overflow=hidden;connectable=0;fillColor=none;top=0;left=0;bottom=0;right=0;" vertex="1" parent="Mv3i5eQ_VLfhkcZu6XRU-198">
          <mxGeometry width="30" height="30" as="geometry" />
        </mxCell>
        <mxCell id="Mv3i5eQ_VLfhkcZu6XRU-200" value="personType int (일반, 청소년, 우대)" style="shape=partialRectangle;overflow=hidden;connectable=0;fillColor=none;top=0;left=0;bottom=0;right=0;align=left;spacingLeft=6;" vertex="1" parent="Mv3i5eQ_VLfhkcZu6XRU-198">
          <mxGeometry x="30" width="250" height="30" as="geometry" />
        </mxCell>
        <mxCell id="Mv3i5eQ_VLfhkcZu6XRU-205" value="" style="shape=partialRectangle;collapsible=0;dropTarget=0;pointerEvents=0;fillColor=none;points=[[0,0.5],[1,0.5]];portConstraint=eastwest;top=0;left=0;right=0;bottom=0;" vertex="1" parent="Mv3i5eQ_VLfhkcZu6XRU-188">
          <mxGeometry y="150" width="280" height="30" as="geometry" />
        </mxCell>
        <mxCell id="Mv3i5eQ_VLfhkcZu6XRU-206" value="FK2" style="shape=partialRectangle;overflow=hidden;connectable=0;fillColor=none;top=0;left=0;bottom=0;right=0;" vertex="1" parent="Mv3i5eQ_VLfhkcZu6XRU-205">
          <mxGeometry width="30" height="30" as="geometry" />
        </mxCell>
        <mxCell id="Mv3i5eQ_VLfhkcZu6XRU-207" value="timeTableId long" style="shape=partialRectangle;overflow=hidden;connectable=0;fillColor=none;top=0;left=0;bottom=0;right=0;align=left;spacingLeft=6;" vertex="1" parent="Mv3i5eQ_VLfhkcZu6XRU-205">
          <mxGeometry x="30" width="250" height="30" as="geometry" />
        </mxCell>
        <mxCell id="Mv3i5eQ_VLfhkcZu6XRU-202" value="" style="shape=partialRectangle;collapsible=0;dropTarget=0;pointerEvents=0;fillColor=none;points=[[0,0.5],[1,0.5]];portConstraint=eastwest;top=0;left=0;right=0;bottom=0;" vertex="1" parent="Mv3i5eQ_VLfhkcZu6XRU-188">
          <mxGeometry y="180" width="280" height="30" as="geometry" />
        </mxCell>
        <mxCell id="Mv3i5eQ_VLfhkcZu6XRU-203" value="FK3" style="shape=partialRectangle;overflow=hidden;connectable=0;fillColor=none;top=0;left=0;bottom=0;right=0;" vertex="1" parent="Mv3i5eQ_VLfhkcZu6XRU-202">
          <mxGeometry width="30" height="30" as="geometry" />
        </mxCell>
        <mxCell id="Mv3i5eQ_VLfhkcZu6XRU-204" value="seatId long" style="shape=partialRectangle;overflow=hidden;connectable=0;fillColor=none;top=0;left=0;bottom=0;right=0;align=left;spacingLeft=6;" vertex="1" parent="Mv3i5eQ_VLfhkcZu6XRU-202">
          <mxGeometry x="30" width="250" height="30" as="geometry" />
        </mxCell>
        <mxCell id="Mv3i5eQ_VLfhkcZu6XRU-208" value="" style="shape=partialRectangle;collapsible=0;dropTarget=0;pointerEvents=0;fillColor=none;points=[[0,0.5],[1,0.5]];portConstraint=eastwest;top=0;left=0;right=0;bottom=0;" vertex="1" parent="Mv3i5eQ_VLfhkcZu6XRU-188">
          <mxGeometry y="210" width="280" height="30" as="geometry" />
        </mxCell>
        <mxCell id="Mv3i5eQ_VLfhkcZu6XRU-209" value="" style="shape=partialRectangle;overflow=hidden;connectable=0;fillColor=none;top=0;left=0;bottom=0;right=0;" vertex="1" parent="Mv3i5eQ_VLfhkcZu6XRU-208">
          <mxGeometry width="30" height="30" as="geometry" />
        </mxCell>
        <mxCell id="Mv3i5eQ_VLfhkcZu6XRU-210" value="createDate Timestamp" style="shape=partialRectangle;overflow=hidden;connectable=0;fillColor=none;top=0;left=0;bottom=0;right=0;align=left;spacingLeft=6;" vertex="1" parent="Mv3i5eQ_VLfhkcZu6XRU-208">
          <mxGeometry x="30" width="250" height="30" as="geometry" />
        </mxCell>
        <mxCell id="Mv3i5eQ_VLfhkcZu6XRU-278" value="" style="edgeStyle=orthogonalEdgeStyle;rounded=0;orthogonalLoop=1;jettySize=auto;html=1;startArrow=ERmany;startFill=0;endArrow=ERone;endFill=0;exitX=1;exitY=0.5;exitDx=0;exitDy=0;" edge="1" parent="1" source="Mv3i5eQ_VLfhkcZu6XRU-221" target="Mv3i5eQ_VLfhkcZu6XRU-259">
          <mxGeometry relative="1" as="geometry" />
        </mxCell>
        <mxCell id="Mv3i5eQ_VLfhkcZu6XRU-214" value="Timetable (상영 시간표)" style="shape=table;startSize=30;container=1;collapsible=1;childLayout=tableLayout;fixedRows=1;rowLines=0;fontStyle=1;align=center;resizeLast=1;" vertex="1" parent="1">
          <mxGeometry x="-440" y="-280" width="280" height="240" as="geometry" />
        </mxCell>
        <mxCell id="Mv3i5eQ_VLfhkcZu6XRU-215" value="" style="shape=partialRectangle;collapsible=0;dropTarget=0;pointerEvents=0;fillColor=none;points=[[0,0.5],[1,0.5]];portConstraint=eastwest;top=0;left=0;right=0;bottom=1;" vertex="1" parent="Mv3i5eQ_VLfhkcZu6XRU-214">
          <mxGeometry y="30" width="280" height="30" as="geometry" />
        </mxCell>
        <mxCell id="Mv3i5eQ_VLfhkcZu6XRU-216" value="PK" style="shape=partialRectangle;overflow=hidden;connectable=0;fillColor=none;top=0;left=0;bottom=0;right=0;fontStyle=1;" vertex="1" parent="Mv3i5eQ_VLfhkcZu6XRU-215">
          <mxGeometry width="30" height="30" as="geometry" />
        </mxCell>
        <mxCell id="Mv3i5eQ_VLfhkcZu6XRU-217" value="id long NOT NULL" style="shape=partialRectangle;overflow=hidden;connectable=0;fillColor=none;top=0;left=0;bottom=0;right=0;align=left;spacingLeft=6;fontStyle=5;" vertex="1" parent="Mv3i5eQ_VLfhkcZu6XRU-215">
          <mxGeometry x="30" width="250" height="30" as="geometry" />
        </mxCell>
        <mxCell id="Mv3i5eQ_VLfhkcZu6XRU-218" value="" style="shape=partialRectangle;collapsible=0;dropTarget=0;pointerEvents=0;fillColor=none;points=[[0,0.5],[1,0.5]];portConstraint=eastwest;top=0;left=0;right=0;bottom=0;" vertex="1" parent="Mv3i5eQ_VLfhkcZu6XRU-214">
          <mxGeometry y="60" width="280" height="30" as="geometry" />
        </mxCell>
        <mxCell id="Mv3i5eQ_VLfhkcZu6XRU-219" value="FK1" style="shape=partialRectangle;overflow=hidden;connectable=0;fillColor=none;top=0;left=0;bottom=0;right=0;" vertex="1" parent="Mv3i5eQ_VLfhkcZu6XRU-218">
          <mxGeometry width="30" height="30" as="geometry" />
        </mxCell>
        <mxCell id="Mv3i5eQ_VLfhkcZu6XRU-220" value="movieId long" style="shape=partialRectangle;overflow=hidden;connectable=0;fillColor=none;top=0;left=0;bottom=0;right=0;align=left;spacingLeft=6;" vertex="1" parent="Mv3i5eQ_VLfhkcZu6XRU-218">
          <mxGeometry x="30" width="250" height="30" as="geometry" />
        </mxCell>
        <mxCell id="Mv3i5eQ_VLfhkcZu6XRU-224" value="" style="shape=partialRectangle;collapsible=0;dropTarget=0;pointerEvents=0;fillColor=none;points=[[0,0.5],[1,0.5]];portConstraint=eastwest;top=0;left=0;right=0;bottom=0;" vertex="1" parent="Mv3i5eQ_VLfhkcZu6XRU-214">
          <mxGeometry y="90" width="280" height="30" as="geometry" />
        </mxCell>
        <mxCell id="Mv3i5eQ_VLfhkcZu6XRU-225" value="FK2" style="shape=partialRectangle;overflow=hidden;connectable=0;fillColor=none;top=0;left=0;bottom=0;right=0;" vertex="1" parent="Mv3i5eQ_VLfhkcZu6XRU-224">
          <mxGeometry width="30" height="30" as="geometry" />
        </mxCell>
        <mxCell id="Mv3i5eQ_VLfhkcZu6XRU-226" value="theaterId long" style="shape=partialRectangle;overflow=hidden;connectable=0;fillColor=none;top=0;left=0;bottom=0;right=0;align=left;spacingLeft=6;" vertex="1" parent="Mv3i5eQ_VLfhkcZu6XRU-224">
          <mxGeometry x="30" width="250" height="30" as="geometry" />
        </mxCell>
        <mxCell id="Mv3i5eQ_VLfhkcZu6XRU-221" value="" style="shape=partialRectangle;collapsible=0;dropTarget=0;pointerEvents=0;fillColor=none;points=[[0,0.5],[1,0.5]];portConstraint=eastwest;top=0;left=0;right=0;bottom=0;" vertex="1" parent="Mv3i5eQ_VLfhkcZu6XRU-214">
          <mxGeometry y="120" width="280" height="30" as="geometry" />
        </mxCell>
        <mxCell id="Mv3i5eQ_VLfhkcZu6XRU-222" value="FK3" style="shape=partialRectangle;overflow=hidden;connectable=0;fillColor=none;top=0;left=0;bottom=0;right=0;" vertex="1" parent="Mv3i5eQ_VLfhkcZu6XRU-221">
          <mxGeometry width="30" height="30" as="geometry" />
        </mxCell>
        <mxCell id="Mv3i5eQ_VLfhkcZu6XRU-223" value="hallId long" style="shape=partialRectangle;overflow=hidden;connectable=0;fillColor=none;top=0;left=0;bottom=0;right=0;align=left;spacingLeft=6;" vertex="1" parent="Mv3i5eQ_VLfhkcZu6XRU-221">
          <mxGeometry x="30" width="250" height="30" as="geometry" />
        </mxCell>
        <mxCell id="Mv3i5eQ_VLfhkcZu6XRU-227" value="" style="shape=partialRectangle;collapsible=0;dropTarget=0;pointerEvents=0;fillColor=none;points=[[0,0.5],[1,0.5]];portConstraint=eastwest;top=0;left=0;right=0;bottom=0;" vertex="1" parent="Mv3i5eQ_VLfhkcZu6XRU-214">
          <mxGeometry y="150" width="280" height="30" as="geometry" />
        </mxCell>
        <mxCell id="Mv3i5eQ_VLfhkcZu6XRU-228" value="" style="shape=partialRectangle;overflow=hidden;connectable=0;fillColor=none;top=0;left=0;bottom=0;right=0;" vertex="1" parent="Mv3i5eQ_VLfhkcZu6XRU-227">
          <mxGeometry width="30" height="30" as="geometry" />
        </mxCell>
        <mxCell id="Mv3i5eQ_VLfhkcZu6XRU-229" value="date varchar (상영일)" style="shape=partialRectangle;overflow=hidden;connectable=0;fillColor=none;top=0;left=0;bottom=0;right=0;align=left;spacingLeft=6;" vertex="1" parent="Mv3i5eQ_VLfhkcZu6XRU-227">
          <mxGeometry x="30" width="250" height="30" as="geometry" />
        </mxCell>
        <mxCell id="Mv3i5eQ_VLfhkcZu6XRU-230" value="" style="shape=partialRectangle;collapsible=0;dropTarget=0;pointerEvents=0;fillColor=none;points=[[0,0.5],[1,0.5]];portConstraint=eastwest;top=0;left=0;right=0;bottom=0;" vertex="1" parent="Mv3i5eQ_VLfhkcZu6XRU-214">
          <mxGeometry y="180" width="280" height="30" as="geometry" />
        </mxCell>
        <mxCell id="Mv3i5eQ_VLfhkcZu6XRU-231" value="" style="shape=partialRectangle;overflow=hidden;connectable=0;fillColor=none;top=0;left=0;bottom=0;right=0;" vertex="1" parent="Mv3i5eQ_VLfhkcZu6XRU-230">
          <mxGeometry width="30" height="30" as="geometry" />
        </mxCell>
        <mxCell id="Mv3i5eQ_VLfhkcZu6XRU-232" value="startTime (상영 시작 시간)" style="shape=partialRectangle;overflow=hidden;connectable=0;fillColor=none;top=0;left=0;bottom=0;right=0;align=left;spacingLeft=6;" vertex="1" parent="Mv3i5eQ_VLfhkcZu6XRU-230">
          <mxGeometry x="30" width="250" height="30" as="geometry" />
        </mxCell>
        <mxCell id="Mv3i5eQ_VLfhkcZu6XRU-258" value="" style="edgeStyle=entityRelationEdgeStyle;fontSize=12;html=1;endArrow=ERmany;startArrow=ERone;startFill=0;endFill=0;exitX=1;exitY=0.5;exitDx=0;exitDy=0;" edge="1" parent="1" source="Mv3i5eQ_VLfhkcZu6XRU-218" target="Mv3i5eQ_VLfhkcZu6XRU-188">
          <mxGeometry width="100" height="100" relative="1" as="geometry">
            <mxPoint x="-330" y="-250" as="sourcePoint" />
            <mxPoint x="-230" y="-350" as="targetPoint" />
          </mxGeometry>
        </mxCell>
        <mxCell id="Mv3i5eQ_VLfhkcZu6XRU-301" value="" style="edgeStyle=orthogonalEdgeStyle;rounded=0;orthogonalLoop=1;jettySize=auto;html=1;startArrow=ERone;startFill=0;endArrow=ERmany;endFill=0;" edge="1" parent="1" source="Mv3i5eQ_VLfhkcZu6XRU-259" target="Mv3i5eQ_VLfhkcZu6XRU-282">
          <mxGeometry relative="1" as="geometry" />
        </mxCell>
        <mxCell id="Mv3i5eQ_VLfhkcZu6XRU-259" value="Theater (극장)" style="shape=table;startSize=30;container=1;collapsible=1;childLayout=tableLayout;fixedRows=1;rowLines=0;fontStyle=1;align=center;resizeLast=1;" vertex="1" parent="1">
          <mxGeometry x="-80" y="-40" width="280" height="240" as="geometry" />
        </mxCell>
        <mxCell id="Mv3i5eQ_VLfhkcZu6XRU-260" value="" style="shape=partialRectangle;collapsible=0;dropTarget=0;pointerEvents=0;fillColor=none;points=[[0,0.5],[1,0.5]];portConstraint=eastwest;top=0;left=0;right=0;bottom=1;" vertex="1" parent="Mv3i5eQ_VLfhkcZu6XRU-259">
          <mxGeometry y="30" width="280" height="30" as="geometry" />
        </mxCell>
        <mxCell id="Mv3i5eQ_VLfhkcZu6XRU-261" value="PK" style="shape=partialRectangle;overflow=hidden;connectable=0;fillColor=none;top=0;left=0;bottom=0;right=0;fontStyle=1;" vertex="1" parent="Mv3i5eQ_VLfhkcZu6XRU-260">
          <mxGeometry width="30" height="30" as="geometry" />
        </mxCell>
        <mxCell id="Mv3i5eQ_VLfhkcZu6XRU-262" value="id long NOT NULL" style="shape=partialRectangle;overflow=hidden;connectable=0;fillColor=none;top=0;left=0;bottom=0;right=0;align=left;spacingLeft=6;fontStyle=5;" vertex="1" parent="Mv3i5eQ_VLfhkcZu6XRU-260">
          <mxGeometry x="30" width="250" height="30" as="geometry" />
        </mxCell>
        <mxCell id="Mv3i5eQ_VLfhkcZu6XRU-263" value="" style="shape=partialRectangle;collapsible=0;dropTarget=0;pointerEvents=0;fillColor=none;points=[[0,0.5],[1,0.5]];portConstraint=eastwest;top=0;left=0;right=0;bottom=0;" vertex="1" parent="Mv3i5eQ_VLfhkcZu6XRU-259">
          <mxGeometry y="60" width="280" height="30" as="geometry" />
        </mxCell>
        <mxCell id="Mv3i5eQ_VLfhkcZu6XRU-264" value="" style="shape=partialRectangle;overflow=hidden;connectable=0;fillColor=none;top=0;left=0;bottom=0;right=0;" vertex="1" parent="Mv3i5eQ_VLfhkcZu6XRU-263">
          <mxGeometry width="30" height="30" as="geometry" />
        </mxCell>
        <mxCell id="Mv3i5eQ_VLfhkcZu6XRU-265" value="name varchar" style="shape=partialRectangle;overflow=hidden;connectable=0;fillColor=none;top=0;left=0;bottom=0;right=0;align=left;spacingLeft=6;" vertex="1" parent="Mv3i5eQ_VLfhkcZu6XRU-263">
          <mxGeometry x="30" width="250" height="30" as="geometry" />
        </mxCell>
        <mxCell id="Mv3i5eQ_VLfhkcZu6XRU-266" value="" style="shape=partialRectangle;collapsible=0;dropTarget=0;pointerEvents=0;fillColor=none;points=[[0,0.5],[1,0.5]];portConstraint=eastwest;top=0;left=0;right=0;bottom=0;" vertex="1" parent="Mv3i5eQ_VLfhkcZu6XRU-259">
          <mxGeometry y="90" width="280" height="30" as="geometry" />
        </mxCell>
        <mxCell id="Mv3i5eQ_VLfhkcZu6XRU-267" value="" style="shape=partialRectangle;overflow=hidden;connectable=0;fillColor=none;top=0;left=0;bottom=0;right=0;" vertex="1" parent="Mv3i5eQ_VLfhkcZu6XRU-266">
          <mxGeometry width="30" height="30" as="geometry" />
        </mxCell>
        <mxCell id="Mv3i5eQ_VLfhkcZu6XRU-268" value="area varchar" style="shape=partialRectangle;overflow=hidden;connectable=0;fillColor=none;top=0;left=0;bottom=0;right=0;align=left;spacingLeft=6;" vertex="1" parent="Mv3i5eQ_VLfhkcZu6XRU-266">
          <mxGeometry x="30" width="250" height="30" as="geometry" />
        </mxCell>
        <mxCell id="Mv3i5eQ_VLfhkcZu6XRU-269" value="" style="shape=partialRectangle;collapsible=0;dropTarget=0;pointerEvents=0;fillColor=none;points=[[0,0.5],[1,0.5]];portConstraint=eastwest;top=0;left=0;right=0;bottom=0;" vertex="1" parent="Mv3i5eQ_VLfhkcZu6XRU-259">
          <mxGeometry y="120" width="280" height="30" as="geometry" />
        </mxCell>
        <mxCell id="Mv3i5eQ_VLfhkcZu6XRU-270" value="" style="shape=partialRectangle;overflow=hidden;connectable=0;fillColor=none;top=0;left=0;bottom=0;right=0;" vertex="1" parent="Mv3i5eQ_VLfhkcZu6XRU-269">
          <mxGeometry width="30" height="30" as="geometry" />
        </mxCell>
        <mxCell id="Mv3i5eQ_VLfhkcZu6XRU-271" value="location varchar" style="shape=partialRectangle;overflow=hidden;connectable=0;fillColor=none;top=0;left=0;bottom=0;right=0;align=left;spacingLeft=6;" vertex="1" parent="Mv3i5eQ_VLfhkcZu6XRU-269">
          <mxGeometry x="30" width="250" height="30" as="geometry" />
        </mxCell>
        <mxCell id="Mv3i5eQ_VLfhkcZu6XRU-272" value="" style="shape=partialRectangle;collapsible=0;dropTarget=0;pointerEvents=0;fillColor=none;points=[[0,0.5],[1,0.5]];portConstraint=eastwest;top=0;left=0;right=0;bottom=0;" vertex="1" parent="Mv3i5eQ_VLfhkcZu6XRU-259">
          <mxGeometry y="150" width="280" height="30" as="geometry" />
        </mxCell>
        <mxCell id="Mv3i5eQ_VLfhkcZu6XRU-273" value="" style="shape=partialRectangle;overflow=hidden;connectable=0;fillColor=none;top=0;left=0;bottom=0;right=0;" vertex="1" parent="Mv3i5eQ_VLfhkcZu6XRU-272">
          <mxGeometry width="30" height="30" as="geometry" />
        </mxCell>
        <mxCell id="Mv3i5eQ_VLfhkcZu6XRU-274" value="phone varchar" style="shape=partialRectangle;overflow=hidden;connectable=0;fillColor=none;top=0;left=0;bottom=0;right=0;align=left;spacingLeft=6;" vertex="1" parent="Mv3i5eQ_VLfhkcZu6XRU-272">
          <mxGeometry x="30" width="250" height="30" as="geometry" />
        </mxCell>
        <mxCell id="Mv3i5eQ_VLfhkcZu6XRU-275" value="" style="shape=partialRectangle;collapsible=0;dropTarget=0;pointerEvents=0;fillColor=none;points=[[0,0.5],[1,0.5]];portConstraint=eastwest;top=0;left=0;right=0;bottom=0;" vertex="1" parent="Mv3i5eQ_VLfhkcZu6XRU-259">
          <mxGeometry y="180" width="280" height="30" as="geometry" />
        </mxCell>
        <mxCell id="Mv3i5eQ_VLfhkcZu6XRU-276" value="" style="shape=partialRectangle;overflow=hidden;connectable=0;fillColor=none;top=0;left=0;bottom=0;right=0;" vertex="1" parent="Mv3i5eQ_VLfhkcZu6XRU-275">
          <mxGeometry width="30" height="30" as="geometry" />
        </mxCell>
        <mxCell id="Mv3i5eQ_VLfhkcZu6XRU-277" value="theaterImageUrl varchar" style="shape=partialRectangle;overflow=hidden;connectable=0;fillColor=none;top=0;left=0;bottom=0;right=0;align=left;spacingLeft=6;" vertex="1" parent="Mv3i5eQ_VLfhkcZu6XRU-275">
          <mxGeometry x="30" width="250" height="30" as="geometry" />
        </mxCell>
        <mxCell id="Mv3i5eQ_VLfhkcZu6XRU-327" value="" style="edgeStyle=orthogonalEdgeStyle;rounded=0;orthogonalLoop=1;jettySize=auto;html=1;startArrow=ERone;startFill=0;endArrow=ERmany;endFill=0;" edge="1" parent="1" source="Mv3i5eQ_VLfhkcZu6XRU-282" target="Mv3i5eQ_VLfhkcZu6XRU-317">
          <mxGeometry relative="1" as="geometry" />
        </mxCell>
        <mxCell id="Mv3i5eQ_VLfhkcZu6XRU-282" value="Hall (관)" style="shape=table;startSize=30;container=1;collapsible=1;childLayout=tableLayout;fixedRows=1;rowLines=0;fontStyle=1;align=center;resizeLast=1;" vertex="1" parent="1">
          <mxGeometry x="-80" y="280" width="280" height="160" as="geometry" />
        </mxCell>
        <mxCell id="Mv3i5eQ_VLfhkcZu6XRU-283" value="" style="shape=partialRectangle;collapsible=0;dropTarget=0;pointerEvents=0;fillColor=none;points=[[0,0.5],[1,0.5]];portConstraint=eastwest;top=0;left=0;right=0;bottom=1;" vertex="1" parent="Mv3i5eQ_VLfhkcZu6XRU-282">
          <mxGeometry y="30" width="280" height="30" as="geometry" />
        </mxCell>
        <mxCell id="Mv3i5eQ_VLfhkcZu6XRU-284" value="PK" style="shape=partialRectangle;overflow=hidden;connectable=0;fillColor=none;top=0;left=0;bottom=0;right=0;fontStyle=1;" vertex="1" parent="Mv3i5eQ_VLfhkcZu6XRU-283">
          <mxGeometry width="30" height="30" as="geometry" />
        </mxCell>
        <mxCell id="Mv3i5eQ_VLfhkcZu6XRU-285" value="id long NOT NULL" style="shape=partialRectangle;overflow=hidden;connectable=0;fillColor=none;top=0;left=0;bottom=0;right=0;align=left;spacingLeft=6;fontStyle=5;" vertex="1" parent="Mv3i5eQ_VLfhkcZu6XRU-283">
          <mxGeometry x="30" width="250" height="30" as="geometry" />
        </mxCell>
        <mxCell id="Mv3i5eQ_VLfhkcZu6XRU-286" value="" style="shape=partialRectangle;collapsible=0;dropTarget=0;pointerEvents=0;fillColor=none;points=[[0,0.5],[1,0.5]];portConstraint=eastwest;top=0;left=0;right=0;bottom=0;" vertex="1" parent="Mv3i5eQ_VLfhkcZu6XRU-282">
          <mxGeometry y="60" width="280" height="30" as="geometry" />
        </mxCell>
        <mxCell id="Mv3i5eQ_VLfhkcZu6XRU-287" value="FK" style="shape=partialRectangle;overflow=hidden;connectable=0;fillColor=none;top=0;left=0;bottom=0;right=0;" vertex="1" parent="Mv3i5eQ_VLfhkcZu6XRU-286">
          <mxGeometry width="30" height="30" as="geometry" />
        </mxCell>
        <mxCell id="Mv3i5eQ_VLfhkcZu6XRU-288" value="theaterId long" style="shape=partialRectangle;overflow=hidden;connectable=0;fillColor=none;top=0;left=0;bottom=0;right=0;align=left;spacingLeft=6;" vertex="1" parent="Mv3i5eQ_VLfhkcZu6XRU-286">
          <mxGeometry x="30" width="250" height="30" as="geometry" />
        </mxCell>
        <mxCell id="Mv3i5eQ_VLfhkcZu6XRU-289" value="" style="shape=partialRectangle;collapsible=0;dropTarget=0;pointerEvents=0;fillColor=none;points=[[0,0.5],[1,0.5]];portConstraint=eastwest;top=0;left=0;right=0;bottom=0;" vertex="1" parent="Mv3i5eQ_VLfhkcZu6XRU-282">
          <mxGeometry y="90" width="280" height="30" as="geometry" />
        </mxCell>
        <mxCell id="Mv3i5eQ_VLfhkcZu6XRU-290" value="" style="shape=partialRectangle;overflow=hidden;connectable=0;fillColor=none;top=0;left=0;bottom=0;right=0;" vertex="1" parent="Mv3i5eQ_VLfhkcZu6XRU-289">
          <mxGeometry width="30" height="30" as="geometry" />
        </mxCell>
        <mxCell id="Mv3i5eQ_VLfhkcZu6XRU-291" value="name varchar" style="shape=partialRectangle;overflow=hidden;connectable=0;fillColor=none;top=0;left=0;bottom=0;right=0;align=left;spacingLeft=6;" vertex="1" parent="Mv3i5eQ_VLfhkcZu6XRU-289">
          <mxGeometry x="30" width="250" height="30" as="geometry" />
        </mxCell>
        <mxCell id="Mv3i5eQ_VLfhkcZu6XRU-302" value="" style="edgeStyle=entityRelationEdgeStyle;fontSize=12;html=1;endArrow=ERmany;entryX=1;entryY=0.5;entryDx=0;entryDy=0;endFill=0;startArrow=ERone;startFill=0;" edge="1" parent="1" source="Mv3i5eQ_VLfhkcZu6XRU-282" target="Mv3i5eQ_VLfhkcZu6XRU-230">
          <mxGeometry width="100" height="100" relative="1" as="geometry">
            <mxPoint x="-370" y="220" as="sourcePoint" />
            <mxPoint x="-270" y="120" as="targetPoint" />
          </mxGeometry>
        </mxCell>
        <mxCell id="Mv3i5eQ_VLfhkcZu6XRU-303" value="FrequentlyCgv (자주가는 CGV)" style="shape=table;startSize=30;container=1;collapsible=1;childLayout=tableLayout;fixedRows=1;rowLines=0;fontStyle=1;align=center;resizeLast=1;" vertex="1" parent="1">
          <mxGeometry x="280" y="-480" width="280" height="160" as="geometry" />
        </mxCell>
        <mxCell id="Mv3i5eQ_VLfhkcZu6XRU-304" value="" style="shape=partialRectangle;collapsible=0;dropTarget=0;pointerEvents=0;fillColor=none;points=[[0,0.5],[1,0.5]];portConstraint=eastwest;top=0;left=0;right=0;bottom=1;" vertex="1" parent="Mv3i5eQ_VLfhkcZu6XRU-303">
          <mxGeometry y="30" width="280" height="30" as="geometry" />
        </mxCell>
        <mxCell id="Mv3i5eQ_VLfhkcZu6XRU-305" value="PK" style="shape=partialRectangle;overflow=hidden;connectable=0;fillColor=none;top=0;left=0;bottom=0;right=0;fontStyle=1;" vertex="1" parent="Mv3i5eQ_VLfhkcZu6XRU-304">
          <mxGeometry width="30" height="30" as="geometry" />
        </mxCell>
        <mxCell id="Mv3i5eQ_VLfhkcZu6XRU-306" value="id long NOT NULL" style="shape=partialRectangle;overflow=hidden;connectable=0;fillColor=none;top=0;left=0;bottom=0;right=0;align=left;spacingLeft=6;fontStyle=5;" vertex="1" parent="Mv3i5eQ_VLfhkcZu6XRU-304">
          <mxGeometry x="30" width="250" height="30" as="geometry" />
        </mxCell>
        <mxCell id="Mv3i5eQ_VLfhkcZu6XRU-307" value="" style="shape=partialRectangle;collapsible=0;dropTarget=0;pointerEvents=0;fillColor=none;points=[[0,0.5],[1,0.5]];portConstraint=eastwest;top=0;left=0;right=0;bottom=0;" vertex="1" parent="Mv3i5eQ_VLfhkcZu6XRU-303">
          <mxGeometry y="60" width="280" height="30" as="geometry" />
        </mxCell>
        <mxCell id="Mv3i5eQ_VLfhkcZu6XRU-308" value="FK1" style="shape=partialRectangle;overflow=hidden;connectable=0;fillColor=none;top=0;left=0;bottom=0;right=0;" vertex="1" parent="Mv3i5eQ_VLfhkcZu6XRU-307">
          <mxGeometry width="30" height="30" as="geometry" />
        </mxCell>
        <mxCell id="Mv3i5eQ_VLfhkcZu6XRU-309" value="userId long" style="shape=partialRectangle;overflow=hidden;connectable=0;fillColor=none;top=0;left=0;bottom=0;right=0;align=left;spacingLeft=6;" vertex="1" parent="Mv3i5eQ_VLfhkcZu6XRU-307">
          <mxGeometry x="30" width="250" height="30" as="geometry" />
        </mxCell>
        <mxCell id="Mv3i5eQ_VLfhkcZu6XRU-310" value="" style="shape=partialRectangle;collapsible=0;dropTarget=0;pointerEvents=0;fillColor=none;points=[[0,0.5],[1,0.5]];portConstraint=eastwest;top=0;left=0;right=0;bottom=0;" vertex="1" parent="Mv3i5eQ_VLfhkcZu6XRU-303">
          <mxGeometry y="90" width="280" height="30" as="geometry" />
        </mxCell>
        <mxCell id="Mv3i5eQ_VLfhkcZu6XRU-311" value="FK2" style="shape=partialRectangle;overflow=hidden;connectable=0;fillColor=none;top=0;left=0;bottom=0;right=0;" vertex="1" parent="Mv3i5eQ_VLfhkcZu6XRU-310">
          <mxGeometry width="30" height="30" as="geometry" />
        </mxCell>
        <mxCell id="Mv3i5eQ_VLfhkcZu6XRU-312" value="theaterId long" style="shape=partialRectangle;overflow=hidden;connectable=0;fillColor=none;top=0;left=0;bottom=0;right=0;align=left;spacingLeft=6;" vertex="1" parent="Mv3i5eQ_VLfhkcZu6XRU-310">
          <mxGeometry x="30" width="250" height="30" as="geometry" />
        </mxCell>
        <mxCell id="Mv3i5eQ_VLfhkcZu6XRU-317" value="Seat (좌석)" style="shape=table;startSize=30;container=1;collapsible=1;childLayout=tableLayout;fixedRows=1;rowLines=0;fontStyle=1;align=center;resizeLast=1;" vertex="1" parent="1">
          <mxGeometry x="280" y="280" width="280" height="160" as="geometry" />
        </mxCell>
        <mxCell id="Mv3i5eQ_VLfhkcZu6XRU-318" value="" style="shape=partialRectangle;collapsible=0;dropTarget=0;pointerEvents=0;fillColor=none;points=[[0,0.5],[1,0.5]];portConstraint=eastwest;top=0;left=0;right=0;bottom=1;" vertex="1" parent="Mv3i5eQ_VLfhkcZu6XRU-317">
          <mxGeometry y="30" width="280" height="30" as="geometry" />
        </mxCell>
        <mxCell id="Mv3i5eQ_VLfhkcZu6XRU-319" value="PK" style="shape=partialRectangle;overflow=hidden;connectable=0;fillColor=none;top=0;left=0;bottom=0;right=0;fontStyle=1;" vertex="1" parent="Mv3i5eQ_VLfhkcZu6XRU-318">
          <mxGeometry width="30" height="30" as="geometry" />
        </mxCell>
        <mxCell id="Mv3i5eQ_VLfhkcZu6XRU-320" value="id long NOT NULL" style="shape=partialRectangle;overflow=hidden;connectable=0;fillColor=none;top=0;left=0;bottom=0;right=0;align=left;spacingLeft=6;fontStyle=5;" vertex="1" parent="Mv3i5eQ_VLfhkcZu6XRU-318">
          <mxGeometry x="30" width="250" height="30" as="geometry" />
        </mxCell>
        <mxCell id="Mv3i5eQ_VLfhkcZu6XRU-321" value="" style="shape=partialRectangle;collapsible=0;dropTarget=0;pointerEvents=0;fillColor=none;points=[[0,0.5],[1,0.5]];portConstraint=eastwest;top=0;left=0;right=0;bottom=0;" vertex="1" parent="Mv3i5eQ_VLfhkcZu6XRU-317">
          <mxGeometry y="60" width="280" height="30" as="geometry" />
        </mxCell>
        <mxCell id="Mv3i5eQ_VLfhkcZu6XRU-322" value="FK" style="shape=partialRectangle;overflow=hidden;connectable=0;fillColor=none;top=0;left=0;bottom=0;right=0;" vertex="1" parent="Mv3i5eQ_VLfhkcZu6XRU-321">
          <mxGeometry width="30" height="30" as="geometry" />
        </mxCell>
        <mxCell id="Mv3i5eQ_VLfhkcZu6XRU-323" value="hallId long" style="shape=partialRectangle;overflow=hidden;connectable=0;fillColor=none;top=0;left=0;bottom=0;right=0;align=left;spacingLeft=6;" vertex="1" parent="Mv3i5eQ_VLfhkcZu6XRU-321">
          <mxGeometry x="30" width="250" height="30" as="geometry" />
        </mxCell>
        <mxCell id="Mv3i5eQ_VLfhkcZu6XRU-324" value="" style="shape=partialRectangle;collapsible=0;dropTarget=0;pointerEvents=0;fillColor=none;points=[[0,0.5],[1,0.5]];portConstraint=eastwest;top=0;left=0;right=0;bottom=0;" vertex="1" parent="Mv3i5eQ_VLfhkcZu6XRU-317">
          <mxGeometry y="90" width="280" height="30" as="geometry" />
        </mxCell>
        <mxCell id="Mv3i5eQ_VLfhkcZu6XRU-325" value="" style="shape=partialRectangle;overflow=hidden;connectable=0;fillColor=none;top=0;left=0;bottom=0;right=0;" vertex="1" parent="Mv3i5eQ_VLfhkcZu6XRU-324">
          <mxGeometry width="30" height="30" as="geometry" />
        </mxCell>
        <mxCell id="Mv3i5eQ_VLfhkcZu6XRU-326" value="name varchar" style="shape=partialRectangle;overflow=hidden;connectable=0;fillColor=none;top=0;left=0;bottom=0;right=0;align=left;spacingLeft=6;" vertex="1" parent="Mv3i5eQ_VLfhkcZu6XRU-324">
          <mxGeometry x="30" width="250" height="30" as="geometry" />
        </mxCell>
        <mxCell id="Mv3i5eQ_VLfhkcZu6XRU-328" value="" style="edgeStyle=entityRelationEdgeStyle;fontSize=12;html=1;endArrow=ERone;exitX=0;exitY=0.5;exitDx=0;exitDy=0;startArrow=ERone;startFill=0;endFill=0;" edge="1" parent="1" source="Mv3i5eQ_VLfhkcZu6XRU-318" target="Mv3i5eQ_VLfhkcZu6XRU-188">
          <mxGeometry width="100" height="100" relative="1" as="geometry">
            <mxPoint x="310" y="50" as="sourcePoint" />
            <mxPoint x="430" y="-60" as="targetPoint" />
          </mxGeometry>
        </mxCell>
        <mxCell id="Mv3i5eQ_VLfhkcZu6XRU-329" value="" style="edgeStyle=entityRelationEdgeStyle;fontSize=12;html=1;endArrow=ERoneToMany;startArrow=ERone;startFill=0;" edge="1" parent="1" source="Mv3i5eQ_VLfhkcZu6XRU-259" target="Mv3i5eQ_VLfhkcZu6XRU-303">
          <mxGeometry width="100" height="100" relative="1" as="geometry">
            <mxPoint x="30" y="-130" as="sourcePoint" />
            <mxPoint x="130" y="-230" as="targetPoint" />
          </mxGeometry>
        </mxCell>
        <mxCell id="Mv3i5eQ_VLfhkcZu6XRU-346" value="Faq(자주 찾는 질문)" style="shape=table;startSize=30;container=1;collapsible=1;childLayout=tableLayout;fixedRows=1;rowLines=0;fontStyle=1;align=center;resizeLast=1;" vertex="1" parent="1">
          <mxGeometry x="280" y="-1080" width="280" height="240" as="geometry" />
        </mxCell>
        <mxCell id="Mv3i5eQ_VLfhkcZu6XRU-347" value="" style="shape=partialRectangle;collapsible=0;dropTarget=0;pointerEvents=0;fillColor=none;points=[[0,0.5],[1,0.5]];portConstraint=eastwest;top=0;left=0;right=0;bottom=1;" vertex="1" parent="Mv3i5eQ_VLfhkcZu6XRU-346">
          <mxGeometry y="30" width="280" height="30" as="geometry" />
        </mxCell>
        <mxCell id="Mv3i5eQ_VLfhkcZu6XRU-348" value="PK" style="shape=partialRectangle;overflow=hidden;connectable=0;fillColor=none;top=0;left=0;bottom=0;right=0;fontStyle=1;" vertex="1" parent="Mv3i5eQ_VLfhkcZu6XRU-347">
          <mxGeometry width="30" height="30" as="geometry" />
        </mxCell>
        <mxCell id="Mv3i5eQ_VLfhkcZu6XRU-349" value="id long NOT NULL" style="shape=partialRectangle;overflow=hidden;connectable=0;fillColor=none;top=0;left=0;bottom=0;right=0;align=left;spacingLeft=6;fontStyle=5;" vertex="1" parent="Mv3i5eQ_VLfhkcZu6XRU-347">
          <mxGeometry x="30" width="250" height="30" as="geometry" />
        </mxCell>
        <mxCell id="Mv3i5eQ_VLfhkcZu6XRU-350" value="" style="shape=partialRectangle;collapsible=0;dropTarget=0;pointerEvents=0;fillColor=none;points=[[0,0.5],[1,0.5]];portConstraint=eastwest;top=0;left=0;right=0;bottom=0;" vertex="1" parent="Mv3i5eQ_VLfhkcZu6XRU-346">
          <mxGeometry y="60" width="280" height="30" as="geometry" />
        </mxCell>
        <mxCell id="Mv3i5eQ_VLfhkcZu6XRU-351" value="" style="shape=partialRectangle;overflow=hidden;connectable=0;fillColor=none;top=0;left=0;bottom=0;right=0;" vertex="1" parent="Mv3i5eQ_VLfhkcZu6XRU-350">
          <mxGeometry width="30" height="30" as="geometry" />
        </mxCell>
        <mxCell id="Mv3i5eQ_VLfhkcZu6XRU-352" value="sort int (분류)" style="shape=partialRectangle;overflow=hidden;connectable=0;fillColor=none;top=0;left=0;bottom=0;right=0;align=left;spacingLeft=6;" vertex="1" parent="Mv3i5eQ_VLfhkcZu6XRU-350">
          <mxGeometry x="30" width="250" height="30" as="geometry" />
        </mxCell>
        <mxCell id="Mv3i5eQ_VLfhkcZu6XRU-353" value="" style="shape=partialRectangle;collapsible=0;dropTarget=0;pointerEvents=0;fillColor=none;points=[[0,0.5],[1,0.5]];portConstraint=eastwest;top=0;left=0;right=0;bottom=0;" vertex="1" parent="Mv3i5eQ_VLfhkcZu6XRU-346">
          <mxGeometry y="90" width="280" height="30" as="geometry" />
        </mxCell>
        <mxCell id="Mv3i5eQ_VLfhkcZu6XRU-354" value="" style="shape=partialRectangle;overflow=hidden;connectable=0;fillColor=none;top=0;left=0;bottom=0;right=0;" vertex="1" parent="Mv3i5eQ_VLfhkcZu6XRU-353">
          <mxGeometry width="30" height="30" as="geometry" />
        </mxCell>
        <mxCell id="Mv3i5eQ_VLfhkcZu6XRU-355" value="title varchar " style="shape=partialRectangle;overflow=hidden;connectable=0;fillColor=none;top=0;left=0;bottom=0;right=0;align=left;spacingLeft=6;" vertex="1" parent="Mv3i5eQ_VLfhkcZu6XRU-353">
          <mxGeometry x="30" width="250" height="30" as="geometry" />
        </mxCell>
        <mxCell id="Mv3i5eQ_VLfhkcZu6XRU-366" value="" style="shape=partialRectangle;collapsible=0;dropTarget=0;pointerEvents=0;fillColor=none;points=[[0,0.5],[1,0.5]];portConstraint=eastwest;top=0;left=0;right=0;bottom=0;" vertex="1" parent="Mv3i5eQ_VLfhkcZu6XRU-346">
          <mxGeometry y="120" width="280" height="30" as="geometry" />
        </mxCell>
        <mxCell id="Mv3i5eQ_VLfhkcZu6XRU-367" value="" style="shape=partialRectangle;overflow=hidden;connectable=0;fillColor=none;top=0;left=0;bottom=0;right=0;" vertex="1" parent="Mv3i5eQ_VLfhkcZu6XRU-366">
          <mxGeometry width="30" height="30" as="geometry" />
        </mxCell>
        <mxCell id="Mv3i5eQ_VLfhkcZu6XRU-368" value="content varchar" style="shape=partialRectangle;overflow=hidden;connectable=0;fillColor=none;top=0;left=0;bottom=0;right=0;align=left;spacingLeft=6;" vertex="1" parent="Mv3i5eQ_VLfhkcZu6XRU-366">
          <mxGeometry x="30" width="250" height="30" as="geometry" />
        </mxCell>
        <mxCell id="Mv3i5eQ_VLfhkcZu6XRU-369" value="" style="shape=partialRectangle;collapsible=0;dropTarget=0;pointerEvents=0;fillColor=none;points=[[0,0.5],[1,0.5]];portConstraint=eastwest;top=0;left=0;right=0;bottom=0;" vertex="1" parent="Mv3i5eQ_VLfhkcZu6XRU-346">
          <mxGeometry y="150" width="280" height="30" as="geometry" />
        </mxCell>
        <mxCell id="Mv3i5eQ_VLfhkcZu6XRU-370" value="" style="shape=partialRectangle;overflow=hidden;connectable=0;fillColor=none;top=0;left=0;bottom=0;right=0;" vertex="1" parent="Mv3i5eQ_VLfhkcZu6XRU-369">
          <mxGeometry width="30" height="30" as="geometry" />
        </mxCell>
        <mxCell id="Mv3i5eQ_VLfhkcZu6XRU-371" value="readCount int" style="shape=partialRectangle;overflow=hidden;connectable=0;fillColor=none;top=0;left=0;bottom=0;right=0;align=left;spacingLeft=6;" vertex="1" parent="Mv3i5eQ_VLfhkcZu6XRU-369">
          <mxGeometry x="30" width="250" height="30" as="geometry" />
        </mxCell>
        <mxCell id="Mv3i5eQ_VLfhkcZu6XRU-372" value="" style="shape=partialRectangle;collapsible=0;dropTarget=0;pointerEvents=0;fillColor=none;points=[[0,0.5],[1,0.5]];portConstraint=eastwest;top=0;left=0;right=0;bottom=0;" vertex="1" parent="Mv3i5eQ_VLfhkcZu6XRU-346">
          <mxGeometry y="180" width="280" height="30" as="geometry" />
        </mxCell>
        <mxCell id="Mv3i5eQ_VLfhkcZu6XRU-373" value="" style="shape=partialRectangle;overflow=hidden;connectable=0;fillColor=none;top=0;left=0;bottom=0;right=0;" vertex="1" parent="Mv3i5eQ_VLfhkcZu6XRU-372">
          <mxGeometry width="30" height="30" as="geometry" />
        </mxCell>
        <mxCell id="Mv3i5eQ_VLfhkcZu6XRU-374" value="createDate Timestamp" style="shape=partialRectangle;overflow=hidden;connectable=0;fillColor=none;top=0;left=0;bottom=0;right=0;align=left;spacingLeft=6;" vertex="1" parent="Mv3i5eQ_VLfhkcZu6XRU-372">
          <mxGeometry x="30" width="250" height="30" as="geometry" />
        </mxCell>
        <mxCell id="Mv3i5eQ_VLfhkcZu6XRU-375" value="Notice (공지사항)" style="shape=table;startSize=30;container=1;collapsible=1;childLayout=tableLayout;fixedRows=1;rowLines=0;fontStyle=1;align=center;resizeLast=1;" vertex="1" parent="1">
          <mxGeometry x="280" y="-800" width="280" height="240" as="geometry" />
        </mxCell>
        <mxCell id="Mv3i5eQ_VLfhkcZu6XRU-376" value="" style="shape=partialRectangle;collapsible=0;dropTarget=0;pointerEvents=0;fillColor=none;points=[[0,0.5],[1,0.5]];portConstraint=eastwest;top=0;left=0;right=0;bottom=1;" vertex="1" parent="Mv3i5eQ_VLfhkcZu6XRU-375">
          <mxGeometry y="30" width="280" height="30" as="geometry" />
        </mxCell>
        <mxCell id="Mv3i5eQ_VLfhkcZu6XRU-377" value="PK" style="shape=partialRectangle;overflow=hidden;connectable=0;fillColor=none;top=0;left=0;bottom=0;right=0;fontStyle=1;" vertex="1" parent="Mv3i5eQ_VLfhkcZu6XRU-376">
          <mxGeometry width="30" height="30" as="geometry" />
        </mxCell>
        <mxCell id="Mv3i5eQ_VLfhkcZu6XRU-378" value="id long NOT NULL" style="shape=partialRectangle;overflow=hidden;connectable=0;fillColor=none;top=0;left=0;bottom=0;right=0;align=left;spacingLeft=6;fontStyle=5;" vertex="1" parent="Mv3i5eQ_VLfhkcZu6XRU-376">
          <mxGeometry x="30" width="250" height="30" as="geometry" />
        </mxCell>
        <mxCell id="Mv3i5eQ_VLfhkcZu6XRU-379" value="" style="shape=partialRectangle;collapsible=0;dropTarget=0;pointerEvents=0;fillColor=none;points=[[0,0.5],[1,0.5]];portConstraint=eastwest;top=0;left=0;right=0;bottom=0;" vertex="1" parent="Mv3i5eQ_VLfhkcZu6XRU-375">
          <mxGeometry y="60" width="280" height="30" as="geometry" />
        </mxCell>
        <mxCell id="Mv3i5eQ_VLfhkcZu6XRU-380" value="" style="shape=partialRectangle;overflow=hidden;connectable=0;fillColor=none;top=0;left=0;bottom=0;right=0;" vertex="1" parent="Mv3i5eQ_VLfhkcZu6XRU-379">
          <mxGeometry width="30" height="30" as="geometry" />
        </mxCell>
        <mxCell id="Mv3i5eQ_VLfhkcZu6XRU-381" value="sort int (분류)" style="shape=partialRectangle;overflow=hidden;connectable=0;fillColor=none;top=0;left=0;bottom=0;right=0;align=left;spacingLeft=6;" vertex="1" parent="Mv3i5eQ_VLfhkcZu6XRU-379">
          <mxGeometry x="30" width="250" height="30" as="geometry" />
        </mxCell>
        <mxCell id="Mv3i5eQ_VLfhkcZu6XRU-382" value="" style="shape=partialRectangle;collapsible=0;dropTarget=0;pointerEvents=0;fillColor=none;points=[[0,0.5],[1,0.5]];portConstraint=eastwest;top=0;left=0;right=0;bottom=0;" vertex="1" parent="Mv3i5eQ_VLfhkcZu6XRU-375">
          <mxGeometry y="90" width="280" height="30" as="geometry" />
        </mxCell>
        <mxCell id="Mv3i5eQ_VLfhkcZu6XRU-383" value="" style="shape=partialRectangle;overflow=hidden;connectable=0;fillColor=none;top=0;left=0;bottom=0;right=0;" vertex="1" parent="Mv3i5eQ_VLfhkcZu6XRU-382">
          <mxGeometry width="30" height="30" as="geometry" />
        </mxCell>
        <mxCell id="Mv3i5eQ_VLfhkcZu6XRU-384" value="title varchar " style="shape=partialRectangle;overflow=hidden;connectable=0;fillColor=none;top=0;left=0;bottom=0;right=0;align=left;spacingLeft=6;" vertex="1" parent="Mv3i5eQ_VLfhkcZu6XRU-382">
          <mxGeometry x="30" width="250" height="30" as="geometry" />
        </mxCell>
        <mxCell id="Mv3i5eQ_VLfhkcZu6XRU-385" value="" style="shape=partialRectangle;collapsible=0;dropTarget=0;pointerEvents=0;fillColor=none;points=[[0,0.5],[1,0.5]];portConstraint=eastwest;top=0;left=0;right=0;bottom=0;" vertex="1" parent="Mv3i5eQ_VLfhkcZu6XRU-375">
          <mxGeometry y="120" width="280" height="30" as="geometry" />
        </mxCell>
        <mxCell id="Mv3i5eQ_VLfhkcZu6XRU-386" value="" style="shape=partialRectangle;overflow=hidden;connectable=0;fillColor=none;top=0;left=0;bottom=0;right=0;" vertex="1" parent="Mv3i5eQ_VLfhkcZu6XRU-385">
          <mxGeometry width="30" height="30" as="geometry" />
        </mxCell>
        <mxCell id="Mv3i5eQ_VLfhkcZu6XRU-387" value="content varchar" style="shape=partialRectangle;overflow=hidden;connectable=0;fillColor=none;top=0;left=0;bottom=0;right=0;align=left;spacingLeft=6;" vertex="1" parent="Mv3i5eQ_VLfhkcZu6XRU-385">
          <mxGeometry x="30" width="250" height="30" as="geometry" />
        </mxCell>
        <mxCell id="Mv3i5eQ_VLfhkcZu6XRU-388" value="" style="shape=partialRectangle;collapsible=0;dropTarget=0;pointerEvents=0;fillColor=none;points=[[0,0.5],[1,0.5]];portConstraint=eastwest;top=0;left=0;right=0;bottom=0;" vertex="1" parent="Mv3i5eQ_VLfhkcZu6XRU-375">
          <mxGeometry y="150" width="280" height="30" as="geometry" />
        </mxCell>
        <mxCell id="Mv3i5eQ_VLfhkcZu6XRU-389" value="" style="shape=partialRectangle;overflow=hidden;connectable=0;fillColor=none;top=0;left=0;bottom=0;right=0;" vertex="1" parent="Mv3i5eQ_VLfhkcZu6XRU-388">
          <mxGeometry width="30" height="30" as="geometry" />
        </mxCell>
        <mxCell id="Mv3i5eQ_VLfhkcZu6XRU-390" value="readCount int" style="shape=partialRectangle;overflow=hidden;connectable=0;fillColor=none;top=0;left=0;bottom=0;right=0;align=left;spacingLeft=6;" vertex="1" parent="Mv3i5eQ_VLfhkcZu6XRU-388">
          <mxGeometry x="30" width="250" height="30" as="geometry" />
        </mxCell>
        <mxCell id="Mv3i5eQ_VLfhkcZu6XRU-391" value="" style="shape=partialRectangle;collapsible=0;dropTarget=0;pointerEvents=0;fillColor=none;points=[[0,0.5],[1,0.5]];portConstraint=eastwest;top=0;left=0;right=0;bottom=0;" vertex="1" parent="Mv3i5eQ_VLfhkcZu6XRU-375">
          <mxGeometry y="180" width="280" height="30" as="geometry" />
        </mxCell>
        <mxCell id="Mv3i5eQ_VLfhkcZu6XRU-392" value="" style="shape=partialRectangle;overflow=hidden;connectable=0;fillColor=none;top=0;left=0;bottom=0;right=0;" vertex="1" parent="Mv3i5eQ_VLfhkcZu6XRU-391">
          <mxGeometry width="30" height="30" as="geometry" />
        </mxCell>
        <mxCell id="Mv3i5eQ_VLfhkcZu6XRU-393" value="createDate Timestamp" style="shape=partialRectangle;overflow=hidden;connectable=0;fillColor=none;top=0;left=0;bottom=0;right=0;align=left;spacingLeft=6;" vertex="1" parent="Mv3i5eQ_VLfhkcZu6XRU-391">
          <mxGeometry x="30" width="250" height="30" as="geometry" />
        </mxCell>
        <mxCell id="Mv3i5eQ_VLfhkcZu6XRU-435" value="Actor (배우)" style="shape=table;startSize=30;container=1;collapsible=1;childLayout=tableLayout;fixedRows=1;rowLines=0;fontStyle=1;align=center;resizeLast=1;" vertex="1" parent="1">
          <mxGeometry x="-440" width="280" height="170" as="geometry" />
        </mxCell>
        <mxCell id="Mv3i5eQ_VLfhkcZu6XRU-436" value="" style="shape=partialRectangle;collapsible=0;dropTarget=0;pointerEvents=0;fillColor=none;points=[[0,0.5],[1,0.5]];portConstraint=eastwest;top=0;left=0;right=0;bottom=1;" vertex="1" parent="Mv3i5eQ_VLfhkcZu6XRU-435">
          <mxGeometry y="30" width="280" height="30" as="geometry" />
        </mxCell>
        <mxCell id="Mv3i5eQ_VLfhkcZu6XRU-437" value="PK" style="shape=partialRectangle;overflow=hidden;connectable=0;fillColor=none;top=0;left=0;bottom=0;right=0;fontStyle=1;" vertex="1" parent="Mv3i5eQ_VLfhkcZu6XRU-436">
          <mxGeometry width="30" height="30" as="geometry" />
        </mxCell>
        <mxCell id="Mv3i5eQ_VLfhkcZu6XRU-438" value="id long NOT NULL" style="shape=partialRectangle;overflow=hidden;connectable=0;fillColor=none;top=0;left=0;bottom=0;right=0;align=left;spacingLeft=6;fontStyle=5;" vertex="1" parent="Mv3i5eQ_VLfhkcZu6XRU-436">
          <mxGeometry x="30" width="250" height="30" as="geometry" />
        </mxCell>
        <mxCell id="Mv3i5eQ_VLfhkcZu6XRU-439" value="" style="shape=partialRectangle;collapsible=0;dropTarget=0;pointerEvents=0;fillColor=none;points=[[0,0.5],[1,0.5]];portConstraint=eastwest;top=0;left=0;right=0;bottom=0;" vertex="1" parent="Mv3i5eQ_VLfhkcZu6XRU-435">
          <mxGeometry y="60" width="280" height="30" as="geometry" />
        </mxCell>
        <mxCell id="Mv3i5eQ_VLfhkcZu6XRU-440" value="" style="shape=partialRectangle;overflow=hidden;connectable=0;fillColor=none;top=0;left=0;bottom=0;right=0;" vertex="1" parent="Mv3i5eQ_VLfhkcZu6XRU-439">
          <mxGeometry width="30" height="30" as="geometry" />
        </mxCell>
        <mxCell id="Mv3i5eQ_VLfhkcZu6XRU-441" value="imageUrl varchar" style="shape=partialRectangle;overflow=hidden;connectable=0;fillColor=none;top=0;left=0;bottom=0;right=0;align=left;spacingLeft=6;" vertex="1" parent="Mv3i5eQ_VLfhkcZu6XRU-439">
          <mxGeometry x="30" width="250" height="30" as="geometry" />
        </mxCell>
        <mxCell id="Mv3i5eQ_VLfhkcZu6XRU-442" value="" style="shape=partialRectangle;collapsible=0;dropTarget=0;pointerEvents=0;fillColor=none;points=[[0,0.5],[1,0.5]];portConstraint=eastwest;top=0;left=0;right=0;bottom=0;" vertex="1" parent="Mv3i5eQ_VLfhkcZu6XRU-435">
          <mxGeometry y="90" width="280" height="30" as="geometry" />
        </mxCell>
        <mxCell id="Mv3i5eQ_VLfhkcZu6XRU-443" value="" style="shape=partialRectangle;overflow=hidden;connectable=0;fillColor=none;top=0;left=0;bottom=0;right=0;" vertex="1" parent="Mv3i5eQ_VLfhkcZu6XRU-442">
          <mxGeometry width="30" height="30" as="geometry" />
        </mxCell>
        <mxCell id="Mv3i5eQ_VLfhkcZu6XRU-444" value="name varchar" style="shape=partialRectangle;overflow=hidden;connectable=0;fillColor=none;top=0;left=0;bottom=0;right=0;align=left;spacingLeft=6;" vertex="1" parent="Mv3i5eQ_VLfhkcZu6XRU-442">
          <mxGeometry x="30" width="250" height="30" as="geometry" />
        </mxCell>
        <mxCell id="Mv3i5eQ_VLfhkcZu6XRU-445" value="" style="shape=partialRectangle;collapsible=0;dropTarget=0;pointerEvents=0;fillColor=none;points=[[0,0.5],[1,0.5]];portConstraint=eastwest;top=0;left=0;right=0;bottom=0;" vertex="1" parent="Mv3i5eQ_VLfhkcZu6XRU-435">
          <mxGeometry y="120" width="280" height="30" as="geometry" />
        </mxCell>
        <mxCell id="Mv3i5eQ_VLfhkcZu6XRU-446" value="FK" style="shape=partialRectangle;overflow=hidden;connectable=0;fillColor=none;top=0;left=0;bottom=0;right=0;" vertex="1" parent="Mv3i5eQ_VLfhkcZu6XRU-445">
          <mxGeometry width="30" height="30" as="geometry" />
        </mxCell>
        <mxCell id="Mv3i5eQ_VLfhkcZu6XRU-447" value="movieId long" style="shape=partialRectangle;overflow=hidden;connectable=0;fillColor=none;top=0;left=0;bottom=0;right=0;align=left;spacingLeft=6;" vertex="1" parent="Mv3i5eQ_VLfhkcZu6XRU-445">
          <mxGeometry x="30" width="250" height="30" as="geometry" />
        </mxCell>
        <mxCell id="Mv3i5eQ_VLfhkcZu6XRU-476" value="" style="edgeStyle=entityRelationEdgeStyle;fontSize=12;html=1;endArrow=ERoneToMany;exitX=1.002;exitY=0.165;exitDx=0;exitDy=0;exitPerimeter=0;startArrow=ERone;startFill=0;" edge="1" parent="1" source="Mv3i5eQ_VLfhkcZu6XRU-123" target="Mv3i5eQ_VLfhkcZu6XRU-435">
          <mxGeometry width="100" height="100" relative="1" as="geometry">
            <mxPoint x="-580" y="300" as="sourcePoint" />
            <mxPoint x="-480" y="200" as="targetPoint" />
          </mxGeometry>
        </mxCell>
        <mxCell id="Mv3i5eQ_VLfhkcZu6XRU-477" value="Director (감독)" style="shape=table;startSize=30;container=1;collapsible=1;childLayout=tableLayout;fixedRows=1;rowLines=0;fontStyle=1;align=center;resizeLast=1;" vertex="1" parent="1">
          <mxGeometry x="-440" y="240" width="280" height="160" as="geometry" />
        </mxCell>
        <mxCell id="Mv3i5eQ_VLfhkcZu6XRU-478" value="" style="shape=partialRectangle;collapsible=0;dropTarget=0;pointerEvents=0;fillColor=none;points=[[0,0.5],[1,0.5]];portConstraint=eastwest;top=0;left=0;right=0;bottom=1;" vertex="1" parent="Mv3i5eQ_VLfhkcZu6XRU-477">
          <mxGeometry y="30" width="280" height="30" as="geometry" />
        </mxCell>
        <mxCell id="Mv3i5eQ_VLfhkcZu6XRU-479" value="PK" style="shape=partialRectangle;overflow=hidden;connectable=0;fillColor=none;top=0;left=0;bottom=0;right=0;fontStyle=1;" vertex="1" parent="Mv3i5eQ_VLfhkcZu6XRU-478">
          <mxGeometry width="30" height="30" as="geometry" />
        </mxCell>
        <mxCell id="Mv3i5eQ_VLfhkcZu6XRU-480" value="id long NOT NULL" style="shape=partialRectangle;overflow=hidden;connectable=0;fillColor=none;top=0;left=0;bottom=0;right=0;align=left;spacingLeft=6;fontStyle=5;" vertex="1" parent="Mv3i5eQ_VLfhkcZu6XRU-478">
          <mxGeometry x="30" width="250" height="30" as="geometry" />
        </mxCell>
        <mxCell id="Mv3i5eQ_VLfhkcZu6XRU-481" value="" style="shape=partialRectangle;collapsible=0;dropTarget=0;pointerEvents=0;fillColor=none;points=[[0,0.5],[1,0.5]];portConstraint=eastwest;top=0;left=0;right=0;bottom=0;" vertex="1" parent="Mv3i5eQ_VLfhkcZu6XRU-477">
          <mxGeometry y="60" width="280" height="30" as="geometry" />
        </mxCell>
        <mxCell id="Mv3i5eQ_VLfhkcZu6XRU-482" value="" style="shape=partialRectangle;overflow=hidden;connectable=0;fillColor=none;top=0;left=0;bottom=0;right=0;" vertex="1" parent="Mv3i5eQ_VLfhkcZu6XRU-481">
          <mxGeometry width="30" height="30" as="geometry" />
        </mxCell>
        <mxCell id="Mv3i5eQ_VLfhkcZu6XRU-483" value="directorImageUrl varchar" style="shape=partialRectangle;overflow=hidden;connectable=0;fillColor=none;top=0;left=0;bottom=0;right=0;align=left;spacingLeft=6;" vertex="1" parent="Mv3i5eQ_VLfhkcZu6XRU-481">
          <mxGeometry x="30" width="250" height="30" as="geometry" />
        </mxCell>
        <mxCell id="Mv3i5eQ_VLfhkcZu6XRU-484" value="" style="shape=partialRectangle;collapsible=0;dropTarget=0;pointerEvents=0;fillColor=none;points=[[0,0.5],[1,0.5]];portConstraint=eastwest;top=0;left=0;right=0;bottom=0;" vertex="1" parent="Mv3i5eQ_VLfhkcZu6XRU-477">
          <mxGeometry y="90" width="280" height="30" as="geometry" />
        </mxCell>
        <mxCell id="Mv3i5eQ_VLfhkcZu6XRU-485" value="" style="shape=partialRectangle;overflow=hidden;connectable=0;fillColor=none;top=0;left=0;bottom=0;right=0;" vertex="1" parent="Mv3i5eQ_VLfhkcZu6XRU-484">
          <mxGeometry width="30" height="30" as="geometry" />
        </mxCell>
        <mxCell id="Mv3i5eQ_VLfhkcZu6XRU-486" value="name varchar" style="shape=partialRectangle;overflow=hidden;connectable=0;fillColor=none;top=0;left=0;bottom=0;right=0;align=left;spacingLeft=6;" vertex="1" parent="Mv3i5eQ_VLfhkcZu6XRU-484">
          <mxGeometry x="30" width="250" height="30" as="geometry" />
        </mxCell>
        <mxCell id="Mv3i5eQ_VLfhkcZu6XRU-487" value="" style="shape=partialRectangle;collapsible=0;dropTarget=0;pointerEvents=0;fillColor=none;points=[[0,0.5],[1,0.5]];portConstraint=eastwest;top=0;left=0;right=0;bottom=0;" vertex="1" parent="Mv3i5eQ_VLfhkcZu6XRU-477">
          <mxGeometry y="120" width="280" height="30" as="geometry" />
        </mxCell>
        <mxCell id="Mv3i5eQ_VLfhkcZu6XRU-488" value="FK" style="shape=partialRectangle;overflow=hidden;connectable=0;fillColor=none;top=0;left=0;bottom=0;right=0;" vertex="1" parent="Mv3i5eQ_VLfhkcZu6XRU-487">
          <mxGeometry width="30" height="30" as="geometry" />
        </mxCell>
        <mxCell id="Mv3i5eQ_VLfhkcZu6XRU-489" value="movieId long" style="shape=partialRectangle;overflow=hidden;connectable=0;fillColor=none;top=0;left=0;bottom=0;right=0;align=left;spacingLeft=6;" vertex="1" parent="Mv3i5eQ_VLfhkcZu6XRU-487">
          <mxGeometry x="30" width="250" height="30" as="geometry" />
        </mxCell>
        <mxCell id="Mv3i5eQ_VLfhkcZu6XRU-490" value="" style="edgeStyle=entityRelationEdgeStyle;fontSize=12;html=1;endArrow=ERoneToMany;exitX=1;exitY=0.5;exitDx=0;exitDy=0;startArrow=ERone;startFill=0;" edge="1" parent="1" source="Mv3i5eQ_VLfhkcZu6XRU-138" target="Mv3i5eQ_VLfhkcZu6XRU-477">
          <mxGeometry width="100" height="100" relative="1" as="geometry">
            <mxPoint x="-670" y="370" as="sourcePoint" />
            <mxPoint x="-570" y="270" as="targetPoint" />
          </mxGeometry>
        </mxCell>
        <mxCell id="Mv3i5eQ_VLfhkcZu6XRU-491" value="Trailer (트레일러)" style="shape=table;startSize=30;container=1;collapsible=1;childLayout=tableLayout;fixedRows=1;rowLines=0;fontStyle=1;align=center;resizeLast=1;" vertex="1" parent="1">
          <mxGeometry x="-440" y="440" width="280" height="160" as="geometry" />
        </mxCell>
        <mxCell id="Mv3i5eQ_VLfhkcZu6XRU-492" value="" style="shape=partialRectangle;collapsible=0;dropTarget=0;pointerEvents=0;fillColor=none;points=[[0,0.5],[1,0.5]];portConstraint=eastwest;top=0;left=0;right=0;bottom=1;" vertex="1" parent="Mv3i5eQ_VLfhkcZu6XRU-491">
          <mxGeometry y="30" width="280" height="30" as="geometry" />
        </mxCell>
        <mxCell id="Mv3i5eQ_VLfhkcZu6XRU-493" value="PK" style="shape=partialRectangle;overflow=hidden;connectable=0;fillColor=none;top=0;left=0;bottom=0;right=0;fontStyle=1;" vertex="1" parent="Mv3i5eQ_VLfhkcZu6XRU-492">
          <mxGeometry width="30" height="30" as="geometry" />
        </mxCell>
        <mxCell id="Mv3i5eQ_VLfhkcZu6XRU-494" value="id long NOT NULL" style="shape=partialRectangle;overflow=hidden;connectable=0;fillColor=none;top=0;left=0;bottom=0;right=0;align=left;spacingLeft=6;fontStyle=5;" vertex="1" parent="Mv3i5eQ_VLfhkcZu6XRU-492">
          <mxGeometry x="30" width="250" height="30" as="geometry" />
        </mxCell>
        <mxCell id="Mv3i5eQ_VLfhkcZu6XRU-495" value="" style="shape=partialRectangle;collapsible=0;dropTarget=0;pointerEvents=0;fillColor=none;points=[[0,0.5],[1,0.5]];portConstraint=eastwest;top=0;left=0;right=0;bottom=0;" vertex="1" parent="Mv3i5eQ_VLfhkcZu6XRU-491">
          <mxGeometry y="60" width="280" height="30" as="geometry" />
        </mxCell>
        <mxCell id="Mv3i5eQ_VLfhkcZu6XRU-496" value="" style="shape=partialRectangle;overflow=hidden;connectable=0;fillColor=none;top=0;left=0;bottom=0;right=0;" vertex="1" parent="Mv3i5eQ_VLfhkcZu6XRU-495">
          <mxGeometry width="30" height="30" as="geometry" />
        </mxCell>
        <mxCell id="Mv3i5eQ_VLfhkcZu6XRU-497" value="trailerUrl varchar" style="shape=partialRectangle;overflow=hidden;connectable=0;fillColor=none;top=0;left=0;bottom=0;right=0;align=left;spacingLeft=6;" vertex="1" parent="Mv3i5eQ_VLfhkcZu6XRU-495">
          <mxGeometry x="30" width="250" height="30" as="geometry" />
        </mxCell>
        <mxCell id="Mv3i5eQ_VLfhkcZu6XRU-498" value="" style="shape=partialRectangle;collapsible=0;dropTarget=0;pointerEvents=0;fillColor=none;points=[[0,0.5],[1,0.5]];portConstraint=eastwest;top=0;left=0;right=0;bottom=0;" vertex="1" parent="Mv3i5eQ_VLfhkcZu6XRU-491">
          <mxGeometry y="90" width="280" height="30" as="geometry" />
        </mxCell>
        <mxCell id="Mv3i5eQ_VLfhkcZu6XRU-499" value="" style="shape=partialRectangle;overflow=hidden;connectable=0;fillColor=none;top=0;left=0;bottom=0;right=0;" vertex="1" parent="Mv3i5eQ_VLfhkcZu6XRU-498">
          <mxGeometry width="30" height="30" as="geometry" />
        </mxCell>
        <mxCell id="Mv3i5eQ_VLfhkcZu6XRU-500" value="thumbImageUrl varchar" style="shape=partialRectangle;overflow=hidden;connectable=0;fillColor=none;top=0;left=0;bottom=0;right=0;align=left;spacingLeft=6;" vertex="1" parent="Mv3i5eQ_VLfhkcZu6XRU-498">
          <mxGeometry x="30" width="250" height="30" as="geometry" />
        </mxCell>
        <mxCell id="Mv3i5eQ_VLfhkcZu6XRU-501" value="" style="shape=partialRectangle;collapsible=0;dropTarget=0;pointerEvents=0;fillColor=none;points=[[0,0.5],[1,0.5]];portConstraint=eastwest;top=0;left=0;right=0;bottom=0;" vertex="1" parent="Mv3i5eQ_VLfhkcZu6XRU-491">
          <mxGeometry y="120" width="280" height="30" as="geometry" />
        </mxCell>
        <mxCell id="Mv3i5eQ_VLfhkcZu6XRU-502" value="FK" style="shape=partialRectangle;overflow=hidden;connectable=0;fillColor=none;top=0;left=0;bottom=0;right=0;" vertex="1" parent="Mv3i5eQ_VLfhkcZu6XRU-501">
          <mxGeometry width="30" height="30" as="geometry" />
        </mxCell>
        <mxCell id="Mv3i5eQ_VLfhkcZu6XRU-503" value="movieId long" style="shape=partialRectangle;overflow=hidden;connectable=0;fillColor=none;top=0;left=0;bottom=0;right=0;align=left;spacingLeft=6;" vertex="1" parent="Mv3i5eQ_VLfhkcZu6XRU-501">
          <mxGeometry x="30" width="250" height="30" as="geometry" />
        </mxCell>
        <mxCell id="Mv3i5eQ_VLfhkcZu6XRU-504" value="" style="edgeStyle=entityRelationEdgeStyle;fontSize=12;html=1;endArrow=ERoneToMany;exitX=0.75;exitY=1;exitDx=0;exitDy=0;startArrow=ERone;startFill=0;" edge="1" parent="1" source="Mv3i5eQ_VLfhkcZu6XRU-103" target="Mv3i5eQ_VLfhkcZu6XRU-491">
          <mxGeometry width="100" height="100" relative="1" as="geometry">
            <mxPoint x="-350" y="360" as="sourcePoint" />
            <mxPoint x="-250" y="260" as="targetPoint" />
          </mxGeometry>
        </mxCell>
        <mxCell id="Mv3i5eQ_VLfhkcZu6XRU-505" value="Stillcut (스틸컷)" style="shape=table;startSize=30;container=1;collapsible=1;childLayout=tableLayout;fixedRows=1;rowLines=0;fontStyle=1;align=center;resizeLast=1;" vertex="1" parent="1">
          <mxGeometry x="-440" y="640" width="280" height="130" as="geometry" />
        </mxCell>
        <mxCell id="Mv3i5eQ_VLfhkcZu6XRU-506" value="" style="shape=partialRectangle;collapsible=0;dropTarget=0;pointerEvents=0;fillColor=none;points=[[0,0.5],[1,0.5]];portConstraint=eastwest;top=0;left=0;right=0;bottom=1;" vertex="1" parent="Mv3i5eQ_VLfhkcZu6XRU-505">
          <mxGeometry y="30" width="280" height="30" as="geometry" />
        </mxCell>
        <mxCell id="Mv3i5eQ_VLfhkcZu6XRU-507" value="PK" style="shape=partialRectangle;overflow=hidden;connectable=0;fillColor=none;top=0;left=0;bottom=0;right=0;fontStyle=1;" vertex="1" parent="Mv3i5eQ_VLfhkcZu6XRU-506">
          <mxGeometry width="30" height="30" as="geometry" />
        </mxCell>
        <mxCell id="Mv3i5eQ_VLfhkcZu6XRU-508" value="id long NOT NULL" style="shape=partialRectangle;overflow=hidden;connectable=0;fillColor=none;top=0;left=0;bottom=0;right=0;align=left;spacingLeft=6;fontStyle=5;" vertex="1" parent="Mv3i5eQ_VLfhkcZu6XRU-506">
          <mxGeometry x="30" width="250" height="30" as="geometry" />
        </mxCell>
        <mxCell id="Mv3i5eQ_VLfhkcZu6XRU-509" value="" style="shape=partialRectangle;collapsible=0;dropTarget=0;pointerEvents=0;fillColor=none;points=[[0,0.5],[1,0.5]];portConstraint=eastwest;top=0;left=0;right=0;bottom=0;" vertex="1" parent="Mv3i5eQ_VLfhkcZu6XRU-505">
          <mxGeometry y="60" width="280" height="30" as="geometry" />
        </mxCell>
        <mxCell id="Mv3i5eQ_VLfhkcZu6XRU-510" value="" style="shape=partialRectangle;overflow=hidden;connectable=0;fillColor=none;top=0;left=0;bottom=0;right=0;" vertex="1" parent="Mv3i5eQ_VLfhkcZu6XRU-509">
          <mxGeometry width="30" height="30" as="geometry" />
        </mxCell>
        <mxCell id="Mv3i5eQ_VLfhkcZu6XRU-511" value="trailerUrl varchar" style="shape=partialRectangle;overflow=hidden;connectable=0;fillColor=none;top=0;left=0;bottom=0;right=0;align=left;spacingLeft=6;" vertex="1" parent="Mv3i5eQ_VLfhkcZu6XRU-509">
          <mxGeometry x="30" width="250" height="30" as="geometry" />
        </mxCell>
        <mxCell id="Mv3i5eQ_VLfhkcZu6XRU-515" value="" style="shape=partialRectangle;collapsible=0;dropTarget=0;pointerEvents=0;fillColor=none;points=[[0,0.5],[1,0.5]];portConstraint=eastwest;top=0;left=0;right=0;bottom=0;" vertex="1" parent="Mv3i5eQ_VLfhkcZu6XRU-505">
          <mxGeometry y="90" width="280" height="30" as="geometry" />
        </mxCell>
        <mxCell id="Mv3i5eQ_VLfhkcZu6XRU-516" value="FK" style="shape=partialRectangle;overflow=hidden;connectable=0;fillColor=none;top=0;left=0;bottom=0;right=0;" vertex="1" parent="Mv3i5eQ_VLfhkcZu6XRU-515">
          <mxGeometry width="30" height="30" as="geometry" />
        </mxCell>
        <mxCell id="Mv3i5eQ_VLfhkcZu6XRU-517" value="movieId long" style="shape=partialRectangle;overflow=hidden;connectable=0;fillColor=none;top=0;left=0;bottom=0;right=0;align=left;spacingLeft=6;" vertex="1" parent="Mv3i5eQ_VLfhkcZu6XRU-515">
          <mxGeometry x="30" width="250" height="30" as="geometry" />
        </mxCell>
        <mxCell id="Mv3i5eQ_VLfhkcZu6XRU-518" value="" style="edgeStyle=entityRelationEdgeStyle;fontSize=12;html=1;endArrow=ERoneToMany;exitX=0.25;exitY=1;exitDx=0;exitDy=0;startArrow=ERone;startFill=0;" edge="1" parent="1" source="Mv3i5eQ_VLfhkcZu6XRU-103" target="Mv3i5eQ_VLfhkcZu6XRU-505">
          <mxGeometry width="100" height="100" relative="1" as="geometry">
            <mxPoint x="-620" y="730" as="sourcePoint" />
            <mxPoint x="-520" y="630" as="targetPoint" />
          </mxGeometry>
        </mxCell>
      </root>
    </mxGraphModel>
  </diagram>
</mxfile>
